<?xml version="1.0" encoding="UTF-8" standalone="no"?>
<!-- Created with Inkscape (http://www.inkscape.org/) -->

<svg
   xmlns:dc="http://purl.org/dc/elements/1.1/"
   xmlns:cc="http://creativecommons.org/ns#"
   xmlns:rdf="http://www.w3.org/1999/02/22-rdf-syntax-ns#"
   xmlns:svg="http://www.w3.org/2000/svg"
   xmlns="http://www.w3.org/2000/svg"
   xmlns:sodipodi="http://sodipodi.sourceforge.net/DTD/sodipodi-0.dtd"
   xmlns:inkscape="http://www.inkscape.org/namespaces/inkscape"
   width="26.713678"
   height="23.851706"
   viewBox="0 0 7.0679942 6.3107635"
   version="1.1"
   id="svg7473"
   inkscape:version="0.92.5 (2060ec1f9f, 2020-04-08)"
   sodipodi:docname="wechat.svg">
  <defs
     id="defs7467" />
  <sodipodi:namedview
     id="base"
     pagecolor="#ffffff"
     bordercolor="#666666"
     borderopacity="1.0"
     inkscape:pageopacity="0.0"
     inkscape:pageshadow="2"
     inkscape:zoom="11.2"
     inkscape:cx="6.0203133"
     inkscape:cy="16.900688"
     inkscape:document-units="mm"
     inkscape:current-layer="layer1"
     showgrid="false"
     inkscape:window-width="1920"
     inkscape:window-height="1052"
     inkscape:window-x="1920"
     inkscape:window-y="0"
     inkscape:window-maximized="1"
     units="px" />
  <metadata
     id="metadata7470">
    <rdf:RDF>
      <cc:Work
         rdf:about="">
        <dc:format>image/svg+xml</dc:format>
        <dc:type
           rdf:resource="http://purl.org/dc/dcmitype/StillImage" />
        <dc:title />
      </cc:Work>
    </rdf:RDF>
  </metadata>
  <g
     inkscape:label="Layer 1"
     inkscape:groupmode="layer"
     id="layer1"
     transform="translate(-23.163767,-52.507924)">
    <path
       style="fill:none;stroke:#ffffff;stroke-width:0.3;stroke-miterlimit:4;stroke-dasharray:none"
       d="m 28.8329,58.10611 -0.499113,-0.215924 -0.155489,0.02675 c -0.212584,0.03657 -0.507373,0.03641 -0.724133,-4e-4 -0.733003,-0.12443 -1.290562,-0.563661 -1.469259,-1.157436 -0.03223,-0.107078 -0.03583,-0.139581 -0.03601,-0.323994 -1.5e-4,-0.167876 0.0049,-0.22328 0.02761,-0.306096 0.116818,-0.424742 0.421197,-0.769491 0.883431,-1.000598 0.106699,-0.05335 0.3151,-0.124879 0.461979,-0.158573 0.37828,-0.08678 0.836175,-0.06948 1.199584,0.04532 0.633744,0.200201 1.090581,0.6612 1.188087,1.198915 0.01922,0.105992 0.01884,0.324933 -7.55e-4,0.433052 -0.03241,0.178844 -0.130503,0.396744 -0.250024,0.555402 -0.08425,0.111832 -0.263424,0.283465 -0.371939,0.35628 -0.04701,0.03154 -0.0873,0.05876 -0.08954,0.06047 -0.0022,0.0017 0.07398,0.159146 0.169377,0.349833 0.0954,0.190687 0.171617,0.348102 0.169377,0.34981 -0.0022,0.0017 -0.228675,-0.09406 -0.503187,-0.212818 z m -1.442764,-1.794303 c 0.147186,-0.07611 0.201807,-0.245477 0.126844,-0.393307 -0.07484,-0.147592 -0.230622,-0.198538 -0.381448,-0.124745 -0.28107,0.137514 -0.163413,0.567735 0.148535,0.543128 0.03736,-0.0029 0.0851,-0.01423 0.106069,-0.02508 z m 1.16003,-0.01391 c 0.08504,-0.04984 0.130895,-0.122876 0.137894,-0.219642 0.0068,-0.09363 -0.01341,-0.15929 -0.06814,-0.221616 -0.115218,-0.131227 -0.318137,-0.127118 -0.434478,0.0088 -0.209932,0.245257 0.0858,0.595915 0.364723,0.432457 z m -4.167851,0.395384 c 0.128772,-0.258295 0.146337,-0.301102 0.127846,-0.311568 -0.07131,-0.04036 -0.208567,-0.15562 -0.329415,-0.276626 -0.342038,-0.342482 -0.516967,-0.745226 -0.516979,-1.19025 -5e-6,-0.200045 0.01772,-0.323081 0.07056,-0.489823 0.231918,-0.731893 0.953756,-1.27749 1.845978,-1.39527 0.191356,-0.02526 0.514789,-0.02526 0.706145,0 0.782285,0.103268 1.445522,0.540519 1.745299,1.15062 0.05895,0.119985 0.140675,0.346101 0.128328,0.355075 -0.0028,0.002 -0.07643,-0.0022 -0.16371,-0.0095 -0.432637,-0.03574 -0.922921,0.06305 -1.335654,0.269146 -0.574433,0.286833 -0.963023,0.758508 -1.07873,1.309376 -0.03384,0.1611 -0.04046,0.441838 -0.01368,0.579936 0.009,0.04621 0.01347,0.08684 0.01004,0.09029 -0.01142,0.01142 -0.234491,-0.03624 -0.389407,-0.0832 l -0.152623,-0.04626 -0.391206,0.16785 c -0.215163,0.09232 -0.395898,0.170494 -0.401633,0.173727 -0.0057,0.0032 0.05675,-0.128868 0.138855,-0.293557 z m 0.866414,-2.270407 c 0.120765,-0.03041 0.214899,-0.1572 0.215106,-0.289729 1.05e-4,-0.07214 -0.06296,-0.183929 -0.130002,-0.230409 -0.05181,-0.03592 -0.06733,-0.03975 -0.160858,-0.03975 -0.09353,0 -0.109046,0.0039 -0.160859,0.03975 -0.03756,0.02604 -0.06989,0.0645 -0.09371,0.111472 -0.06254,0.123329 -0.04358,0.236725 0.05566,0.333011 0.08511,0.08258 0.162512,0.103895 0.274662,0.07566 z m 1.520793,0 c 0.120766,-0.03041 0.2149,-0.1572 0.215107,-0.289729 1.05e-4,-0.07214 -0.06296,-0.183929 -0.130003,-0.230409 -0.05181,-0.03592 -0.06733,-0.03975 -0.160858,-0.03975 -0.09353,0 -0.109046,0.0039 -0.160858,0.03975 -0.03756,0.02604 -0.06989,0.0645 -0.09371,0.111472 -0.06254,0.123329 -0.04358,0.236725 0.05566,0.333011 0.08511,0.08258 0.162512,0.103895 0.274662,0.07566 z"
       id="path7456"
       inkscape:connector-curvature="0" />
  </g>
</svg>
