<?xml version="1.0" encoding="UTF-8" standalone="no"?>
<!-- Created with Inkscape (http://www.inkscape.org/) -->

<svg
   xmlns:dc="http://purl.org/dc/elements/1.1/"
   xmlns:cc="http://creativecommons.org/ns#"
   xmlns:rdf="http://www.w3.org/1999/02/22-rdf-syntax-ns#"
   xmlns:svg="http://www.w3.org/2000/svg"
   xmlns="http://www.w3.org/2000/svg"
   xmlns:sodipodi="http://sodipodi.sourceforge.net/DTD/sodipodi-0.dtd"
   xmlns:inkscape="http://www.inkscape.org/namespaces/inkscape"
   width="15.19363mm"
   height="5.9181271mm"
   viewBox="0 0 15.19363 5.9181271"
   version="1.1"
   id="svg6211"
   inkscape:version="0.92.5 (2060ec1f9f, 2020-04-08)"
   sodipodi:docname="logo-onlywords-white.svg">
  <defs
     id="defs6205" />
  <sodipodi:namedview
     id="base"
     pagecolor="#ffffff"
     bordercolor="#666666"
     borderopacity="1.0"
     inkscape:pageopacity="0.0"
     inkscape:pageshadow="2"
     inkscape:zoom="7.9195959"
     inkscape:cx="21.19766"
     inkscape:cy="18.726745"
     inkscape:document-units="mm"
     inkscape:current-layer="layer1"
     showgrid="false"
     inkscape:window-width="1920"
     inkscape:window-height="1052"
     inkscape:window-x="1920"
     inkscape:window-y="0"
     inkscape:window-maximized="1" />
  <metadata
     id="metadata6208">
    <rdf:RDF>
      <cc:Work
         rdf:about="">
        <dc:format>image/svg+xml</dc:format>
        <dc:type
           rdf:resource="http://purl.org/dc/dcmitype/StillImage" />
        <dc:title></dc:title>
      </cc:Work>
    </rdf:RDF>
  </metadata>
  <g
     inkscape:label="Layer 1"
     inkscape:groupmode="layer"
     id="layer1"
     transform="translate(30.275388,-167.04094)">
    <g
       transform="translate(360.07272,4.70193)"
       id="g6178">
      <g
         style="fill:#2affd5;fill-opacity:1"
         transform="translate(-0.55448818,2.7696764)"
         id="g1169">
        <path
           inkscape:connector-curvature="0"
           id="path1110"
           style="font-style:normal;font-variant:normal;font-weight:normal;font-stretch:normal;font-size:4.67928886px;line-height:1;font-family:'Trend Sans';-inkscape-font-specification:'Trend Sans';letter-spacing:0px;word-spacing:0px;fill:#00c49d;fill-opacity:1;stroke:none;stroke-width:0.1169822"
           d="m -388.89988,162.25992 h 1.41315 l 0.29011,0.6551 h 0.62235 l -1.54417,-3.31761 h -0.13102 l -1.54416,3.31761 h 0.6083 z m 0.70657,-1.59563 0.50069,1.13238 h -1.00137 z" />
        <path
           inkscape:connector-curvature="0"
           id="path1112"
           style="font-style:normal;font-variant:normal;font-weight:normal;font-stretch:normal;font-size:4.67928886px;line-height:1;font-family:'Trend Sans';-inkscape-font-specification:'Trend Sans';letter-spacing:0px;word-spacing:0px;fill:#00c49d;fill-opacity:1;stroke:none;stroke-width:0.1169822"
           d="m -383.20519,162.19909 c 0,0 -0.39774,0.22461 -0.95457,0.22461 -0.68318,0 -1.18854,-0.48665 -1.18854,-1.14643 0,-0.67381 0.47261,-1.16046 1.24469,-1.16046 0.42581,0 0.86099,0.21525 0.86099,0.21525 l 0.20121,-0.49601 c 0,0 -0.43986,-0.26672 -1.16047,-0.26672 -0.97329,0 -1.77345,0.74869 -1.77345,1.69858 0,0.9733 0.73933,1.70327 1.853,1.70327 0.66914,0 1.09496,-0.27608 1.09496,-0.27608 z" />
        <path
           inkscape:connector-curvature="0"
           id="path1114"
           style="font-style:normal;font-variant:normal;font-weight:normal;font-stretch:normal;font-size:4.67928886px;line-height:1;font-family:'Trend Sans';-inkscape-font-specification:'Trend Sans';letter-spacing:0px;word-spacing:0px;fill:#00c49d;fill-opacity:1;stroke:none;stroke-width:0.1169822"
           d="m -381.96518,161.55335 c 0,0.98265 0.53811,1.4225 1.36167,1.4225 0.82355,0 1.38039,-0.43985 1.38039,-1.4225 v -1.92787 h -0.58023 v 1.92319 c 0,0.63171 -0.30416,0.89375 -0.80016,0.89375 -0.496,0 -0.78144,-0.26204 -0.78144,-0.88907 v -1.92787 h -0.58023 z" />
        <path
           inkscape:connector-curvature="0"
           id="path1116"
           style="font-style:normal;font-variant:normal;font-weight:normal;font-stretch:normal;font-size:4.67928886px;line-height:1;font-family:'Trend Sans';-inkscape-font-specification:'Trend Sans';letter-spacing:0px;word-spacing:0px;fill:#00c49d;fill-opacity:1;stroke:none;stroke-width:0.1169822"
           d="m -378.11414,161.26791 c 0,0.9733 0.74869,1.69859 1.75474,1.69859 1.00604,0 1.75941,-0.72997 1.75941,-1.69859 0,-0.98265 -0.73933,-1.69858 -1.75941,-1.69858 -0.98733,0 -1.75474,0.74869 -1.75474,1.69858 z m 0.62703,0.009 c 0,-0.67381 0.48196,-1.18386 1.13239,-1.18386 0.65978,0 1.13238,0.51005 1.13238,1.18386 0,0.66914 -0.496,1.17918 -1.13238,1.17918 -0.63639,0 -1.13239,-0.5194 -1.13239,-1.17918 z" />
      </g>
      <g
         transform="matrix(0.43630736,0,0,0.43630736,-220.36198,95.107962)"
         id="g1163">
        <path
           inkscape:connector-curvature="0"
           id="path1118"
           style="font-style:normal;font-variant:normal;font-weight:normal;font-stretch:normal;font-size:4.67928886px;line-height:1;font-family:'Trend Sans';-inkscape-font-specification:'Trend Sans';letter-spacing:0px;word-spacing:0px;fill:#ffffff;fill-opacity:1;stroke:none;stroke-width:0.1169822"
           d="m -386.83163,166.87838 c 0,0 -0.39774,0.22461 -0.95458,0.22461 -0.68318,0 -1.18854,-0.48665 -1.18854,-1.14643 0,-0.67382 0.47261,-1.16046 1.24469,-1.16046 0.42582,0 0.86099,0.21525 0.86099,0.21525 l 0.20121,-0.49601 c 0,0 -0.43985,-0.26672 -1.16046,-0.26672 -0.97329,0 -1.77345,0.74869 -1.77345,1.69858 0,0.9733 0.73932,1.70326 1.853,1.70326 0.66913,0 1.09495,-0.27607 1.09495,-0.27607 z" />
        <path
           inkscape:connector-curvature="0"
           id="path1120"
           style="font-style:normal;font-variant:normal;font-weight:normal;font-stretch:normal;font-size:4.67928886px;line-height:1;font-family:'Trend Sans';-inkscape-font-specification:'Trend Sans';letter-spacing:0px;word-spacing:0px;fill:#ffffff;fill-opacity:1;stroke:none;stroke-width:0.1169822"
           d="m -385.87239,165.9472 c 0,0.9733 0.74868,1.69858 1.75473,1.69858 1.00605,0 1.75941,-0.72996 1.75941,-1.69858 0,-0.98265 -0.73933,-1.69858 -1.75941,-1.69858 -0.98733,0 -1.75473,0.74869 -1.75473,1.69858 z m 0.62702,0.009 c 0,-0.67382 0.48197,-1.18386 1.13239,-1.18386 0.65978,0 1.13239,0.51004 1.13239,1.18386 0,0.66914 -0.49601,1.17918 -1.13239,1.17918 -0.63638,0 -1.13239,-0.5194 -1.13239,-1.17918 z" />
        <path
           inkscape:connector-curvature="0"
           id="path1122"
           style="font-style:normal;font-variant:normal;font-weight:normal;font-stretch:normal;font-size:4.67928886px;line-height:1;font-family:'Trend Sans';-inkscape-font-specification:'Trend Sans';letter-spacing:0px;word-spacing:0px;fill:#ffffff;fill-opacity:1;stroke:none;stroke-width:0.1169822"
           d="m -381.20715,167.59431 h 0.58023 v -2.04017 l 2.06357,2.06357 h 0.15441 v -3.31294 h -0.58023 v 2.101 l -2.03549,-2.11971 h -0.18249 z" />
        <path
           inkscape:connector-curvature="0"
           id="path1124"
           style="font-style:normal;font-variant:normal;font-weight:normal;font-stretch:normal;font-size:4.67928886px;line-height:1;font-family:'Trend Sans';-inkscape-font-specification:'Trend Sans';letter-spacing:0px;word-spacing:0px;fill:#ffffff;fill-opacity:1;stroke:none;stroke-width:0.1169822"
           d="m -375.03049,166.70525 c 0,-0.4305 -0.21057,-0.72061 -0.94522,-1.00605 -0.46325,-0.16845 -0.64106,-0.29947 -0.64106,-0.51004 0,-0.22929 0.15909,-0.42114 0.50536,-0.42114 0.25268,0 0.5428,0.11231 0.73465,0.21993 l 0.18717,-0.51472 c -0.21057,-0.12166 -0.55683,-0.22461 -0.90778,-0.22461 -0.70189,0 -1.10431,0.45857 -1.10431,0.95458 0,0.39306 0.21992,0.69721 0.86099,0.93117 0.59427,0.21993 0.71593,0.35095 0.71593,0.57088 0,0.21057 -0.17781,0.40242 -0.5662,0.40242 -0.29479,0 -0.62234,-0.11231 -0.89374,-0.2948 l -0.20121,0.52408 c 0.29948,0.18249 0.68786,0.31351 1.07624,0.31351 0.73465,0 1.17918,-0.3603 1.17918,-0.94521 z" />
        <path
           inkscape:connector-curvature="0"
           id="path1126"
           style="font-style:normal;font-variant:normal;font-weight:normal;font-stretch:normal;font-size:4.67928886px;line-height:1;font-family:'Trend Sans';-inkscape-font-specification:'Trend Sans';letter-spacing:0px;word-spacing:0px;fill:#ffffff;fill-opacity:1;stroke:none;stroke-width:0.1169822"
           d="m -373.94958,166.23264 c 0,0.98265 0.53812,1.4225 1.36167,1.4225 0.82356,0 1.38039,-0.43985 1.38039,-1.4225 v -1.92787 h -0.58023 v 1.92319 c 0,0.6317 -0.30415,0.89374 -0.80016,0.89374 -0.496,0 -0.78144,-0.26204 -0.78144,-0.88906 v -1.92787 h -0.58023 z" />
        <path
           inkscape:connector-curvature="0"
           id="path1128"
           style="font-style:normal;font-variant:normal;font-weight:normal;font-stretch:normal;font-size:4.67928886px;line-height:1;font-family:'Trend Sans';-inkscape-font-specification:'Trend Sans';letter-spacing:0px;word-spacing:0px;fill:#ffffff;fill-opacity:1;stroke:none;stroke-width:0.1169822"
           d="m -369.88329,167.59431 h 2.13844 v -0.53344 h -1.55821 v -2.7561 h -0.58023 z" />
        <path
           inkscape:connector-curvature="0"
           id="path1130"
           style="font-style:normal;font-variant:normal;font-weight:normal;font-stretch:normal;font-size:4.67928886px;line-height:1;font-family:'Trend Sans';-inkscape-font-specification:'Trend Sans';letter-spacing:0px;word-spacing:0px;fill:#ffffff;fill-opacity:1;stroke:none;stroke-width:0.1169822"
           d="m -367.51558,164.83821 h 1.09963 v 2.7561 h 0.58491 v -2.7561 h 1.08092 v -0.53344 h -2.76546 z" />
        <path
           inkscape:connector-curvature="0"
           id="path1132"
           style="font-style:normal;font-variant:normal;font-weight:normal;font-stretch:normal;font-size:4.67928886px;line-height:1;font-family:'Trend Sans';-inkscape-font-specification:'Trend Sans';letter-spacing:0px;word-spacing:0px;fill:#ffffff;fill-opacity:1;stroke:none;stroke-width:0.1169822"
           d="m -363.80023,167.59431 h 0.58024 v -3.28954 h -0.58024 z" />
        <path
           inkscape:connector-curvature="0"
           id="path1134"
           style="font-style:normal;font-variant:normal;font-weight:normal;font-stretch:normal;font-size:4.67928886px;line-height:1;font-family:'Trend Sans';-inkscape-font-specification:'Trend Sans';letter-spacing:0px;word-spacing:0px;fill:#ffffff;fill-opacity:1;stroke:none;stroke-width:0.1169822"
           d="m -361.85365,167.59431 h 0.58023 v -2.04017 l 2.06357,2.06357 h 0.15442 v -3.31294 h -0.58024 v 2.101 l -2.03549,-2.11971 h -0.18249 z" />
        <path
           inkscape:connector-curvature="0"
           id="path1136"
           style="font-style:normal;font-variant:normal;font-weight:normal;font-stretch:normal;font-size:4.67928886px;line-height:1;font-family:'Trend Sans';-inkscape-font-specification:'Trend Sans';letter-spacing:0px;word-spacing:0px;fill:#ffffff;fill-opacity:1;stroke:none;stroke-width:0.1169822"
           d="m -356.25722,165.86766 v 0.5194 h 0.91714 v 0.58491 c -0.17781,0.0655 -0.44453,0.13102 -0.74869,0.13102 -0.68317,0 -1.18854,-0.48665 -1.18854,-1.14643 0,-0.67382 0.47261,-1.16046 1.24469,-1.16046 0.43518,0 0.86099,0.21525 0.86099,0.21525 l 0.20121,-0.49601 c 0,0 -0.42581,-0.26672 -1.16046,-0.26672 -0.97329,0 -1.77345,0.74869 -1.77345,1.69858 0,0.9733 0.73933,1.70326 1.853,1.70326 0.78144,0 1.27276,-0.37434 1.27276,-0.37434 v -1.40846 z" />
      </g>
    </g>
  </g>
</svg>
