<?xml version="1.0" encoding="UTF-8" standalone="no"?>
<!-- Created with Inkscape (http://www.inkscape.org/) -->

<svg
   xmlns:dc="http://purl.org/dc/elements/1.1/"
   xmlns:cc="http://creativecommons.org/ns#"
   xmlns:rdf="http://www.w3.org/1999/02/22-rdf-syntax-ns#"
   xmlns:svg="http://www.w3.org/2000/svg"
   xmlns="http://www.w3.org/2000/svg"
   xmlns:sodipodi="http://sodipodi.sourceforge.net/DTD/sodipodi-0.dtd"
   xmlns:inkscape="http://www.inkscape.org/namespaces/inkscape"
   width="11.505971mm"
   height="6.4723201mm"
   viewBox="0 0 11.505971 6.4723201"
   version="1.1"
   id="svg4579"
   inkscape:version="0.92.5 (2060ec1f9f, 2020-04-08)"
   sodipodi:docname="canada-flag.svg">
  <defs
     id="defs4573" />
  <sodipodi:namedview
     id="base"
     pagecolor="#ffffff"
     bordercolor="#666666"
     borderopacity="1.0"
     inkscape:pageopacity="0.0"
     inkscape:pageshadow="2"
     inkscape:zoom="15.839192"
     inkscape:cx="17.940769"
     inkscape:cy="18.847824"
     inkscape:document-units="mm"
     inkscape:current-layer="layer1"
     showgrid="false"
     inkscape:window-width="1920"
     inkscape:window-height="1052"
     inkscape:window-x="1920"
     inkscape:window-y="0"
     inkscape:window-maximized="1"
     inkscape:snap-global="false" />
  <metadata
     id="metadata4576">
    <rdf:RDF>
      <cc:Work
         rdf:about="">
        <dc:format>image/svg+xml</dc:format>
        <dc:type
           rdf:resource="http://purl.org/dc/dcmitype/StillImage" />
        <dc:title />
      </cc:Work>
    </rdf:RDF>
  </metadata>
  <g
     inkscape:label="Layer 1"
     inkscape:groupmode="layer"
     id="layer1"
     transform="translate(15.82941,-103.26384)">
    <path
       inkscape:connector-curvature="0"
       style="opacity:1;fill:#00c69f;fill-opacity:1;stroke:none;stroke-width:0.05557393;stroke-linecap:round;stroke-linejoin:miter;stroke-miterlimit:4;stroke-dasharray:none;stroke-opacity:1"
       d="m -7.559597,103.26384 a 3.2361446,3.2361446 0 0 0 -3.236012,3.23616 3.2361446,3.2361446 0 0 0 3.236012,3.23616 3.2361446,3.2361446 0 0 0 3.2361579,-3.23616 3.2361446,3.2361446 0 0 0 -3.2361579,-3.23616 z m 0,1.12348 0.3482132,0.68364 a 0.06815295,0.06815295 0 0 0 0.095346,0.0283 l 0.3429,-0.19816 -0.2139532,1.10308 a 0.06815295,0.06815295 0 0 0 0.1164537,0.0597 l 0.4435588,-0.47601 0.1099928,0.2589 a 0.06815295,0.06815295 0 0 0 0.076535,0.0399 l 0.5683415,-0.12061 -0.1949992,0.59978 a 0.06815295,0.06815295 0 0 0 0.035611,0.0829 l 0.2222824,0.10367 -0.9866283,0.7991 a 0.06815295,0.06815295 0 0 0 -0.020965,0.0765 l 0.1216236,0.33544 -0.9007594,-0.15824 a 0.09960816,0.09960816 0 0 0 -0.1163104,0.10267 l 0.047098,0.90492 h -0.1885376 l 0.047098,-0.90492 a 0.09960816,0.09960816 0 0 0 -0.1163101,-0.10267 l -0.900758,0.15824 0.1216221,-0.33544 a 0.06815295,0.06815295 0 0 0 -0.020965,-0.0765 l -0.9866263,-0.7991 0.2222793,-0.10367 a 0.06815295,0.06815295 0 0 0 0.035613,-0.0829 l -0.1949961,-0.59978 0.5683364,0.12061 a 0.06815295,0.06815295 0 0 0 0.076534,-0.0399 l 0.1099927,-0.2589 0.4435625,0.47601 a 0.06815295,0.06815295 0 0 0 0.1164538,-0.0597 l -0.2139533,-1.10308 0.3429001,0.19816 a 0.06815295,0.06815295 0 0 0 0.095345,-0.0283 z"
       id="path4561" />
    <path
       id="path2006"
       d="m -7.559597,103.26384 a 3.2361446,3.2361446 0 0 0 -3.236012,3.23616 3.2361446,3.2361446 0 0 0 3.236012,3.23616 3.2361446,3.2361446 0 0 0 3.2361579,-3.23616 3.2361446,3.2361446 0 0 0 -3.2361579,-3.23616 z m 0,1.12348 0.3482132,0.68364 a 0.06815295,0.06815295 0 0 0 0.095346,0.0283 l 0.3429,-0.19816 -0.2139532,1.10308 a 0.06815295,0.06815295 0 0 0 0.1164537,0.0597 l 0.4435588,-0.47601 0.1099928,0.2589 a 0.06815295,0.06815295 0 0 0 0.076535,0.0399 l 0.5683415,-0.12061 -0.1949992,0.59978 a 0.06815295,0.06815295 0 0 0 0.035611,0.0829 l 0.2222824,0.10367 -0.9866283,0.7991 a 0.06815295,0.06815295 0 0 0 -0.020965,0.0765 l 0.1216236,0.33544 -0.9007594,-0.15824 a 0.09960816,0.09960816 0 0 0 -0.1163104,0.10267 l 0.047098,0.90492 h -0.1885376 l 0.047098,-0.90492 a 0.09960816,0.09960816 0 0 0 -0.1163101,-0.10267 l -0.900758,0.15824 0.1216221,-0.33544 a 0.06815295,0.06815295 0 0 0 -0.020965,-0.0765 l -0.9866263,-0.7991 0.2222793,-0.10367 a 0.06815295,0.06815295 0 0 0 0.035613,-0.0829 l -0.1949961,-0.59978 0.5683364,0.12061 a 0.06815295,0.06815295 0 0 0 0.076534,-0.0399 l 0.1099927,-0.2589 0.4435625,0.47601 a 0.06815295,0.06815295 0 0 0 0.1164538,-0.0597 l -0.2139533,-1.10308 0.3429001,0.19816 a 0.06815295,0.06815295 0 0 0 0.095345,-0.0283 z"
       style="opacity:1;fill:#00c69f;fill-opacity:1;stroke:none;stroke-width:0.05557393;stroke-linecap:round;stroke-linejoin:miter;stroke-miterlimit:4;stroke-dasharray:none;stroke-opacity:1"
       inkscape:connector-curvature="0" />
    <path
       style="opacity:1;fill:#00c49d;fill-opacity:1;stroke:none;stroke-width:0.75942659;stroke-linecap:round;stroke-linejoin:miter;stroke-miterlimit:4;stroke-dasharray:none;stroke-opacity:1"
       d="m -6.8183594,0.03710937 v 0.0019531 A 12.205613,12.205613 0 0 0 -19.025391,12.244141 a 12.205613,12.205613 0 0 0 0.261719,2.441406 H -4.3769531 V 0.28515625 A 12.205613,12.205613 0 0 0 -6.8183594,0.03710937 Z M -2.4375,0.87109375 V 4.921875 H 1.3554688 A 13.114977,13.114977 0 0 1 2.0917969,3.9257812 12.205612,12.205612 0 0 0 -2.4375,0.87109375 Z m -9.287109,2.40820315 1.353515,2.6914062 2.9843752,0.4101563 L -9.5273438,8.5 l 0.53125,2.964844 -2.6757812,-1.38086 -2.65625,1.421875 0.486328,-2.9726559 -2.173828,-2.0859375 2.978516,-0.4570312 z M -2.4375,9.8027344 v 4.8828126 h 1.79101562 A 13.114977,13.114977 0 0 1 -0.88476562,12.230469 13.114977,13.114977 0 0 1 -0.6484375,9.8027344 Z m 7.1972656,0 0.5917969,1.8203126 A 12.205612,12.205612 0 0 0 5.1269531,9.8027344 Z m 0.6054688,2.0742186 a 0.27620039,0.27620039 0 0 1 -0.1367188,0.146485 l -0.9003906,0.419921 1.0078125,0.816407 a 12.205612,12.205612 0 0 0 0.050781,-1.017578 12.205612,12.205612 0 0 0 -0.021484,-0.365235 z m -21.9335934,7.689453 a 12.205613,12.205613 0 0 0 9.7499996,4.882813 12.205613,12.205613 0 0 0 8.9160156,-3.904297 13.114977,13.114977 0 0 1 -0.734375,-0.978516 z"
       transform="matrix(0.26458333,0,0,0.26458333,-10.795609,103.26384)"
       id="rect10020"
       inkscape:connector-curvature="0" />
    <path
       inkscape:connector-curvature="0"
       style="opacity:1;fill:#00c69f;fill-opacity:1;stroke:none;stroke-width:0.05557393;stroke-linecap:round;stroke-linejoin:miter;stroke-miterlimit:4;stroke-dasharray:none;stroke-opacity:1"
       d="m -7.559597,103.26384 a 3.2361446,3.2361446 0 0 0 -3.236012,3.23616 3.2361446,3.2361446 0 0 0 3.236012,3.23616 3.2361446,3.2361446 0 0 0 3.2361579,-3.23616 3.2361446,3.2361446 0 0 0 -3.2361579,-3.23616 z m 0,1.12348 0.3482132,0.68364 a 0.06815295,0.06815295 0 0 0 0.095346,0.0283 l 0.3429,-0.19816 -0.2139532,1.10308 a 0.06815295,0.06815295 0 0 0 0.1164537,0.0597 l 0.4435588,-0.47601 0.1099928,0.2589 a 0.06815295,0.06815295 0 0 0 0.076535,0.0399 l 0.5683415,-0.12061 -0.1949992,0.59978 a 0.06815295,0.06815295 0 0 0 0.035611,0.0829 l 0.2222824,0.10367 -0.9866283,0.7991 a 0.06815295,0.06815295 0 0 0 -0.020965,0.0765 l 0.1216236,0.33544 -0.9007594,-0.15824 a 0.09960816,0.09960816 0 0 0 -0.1163104,0.10267 l 0.047098,0.90492 h -0.1885376 l 0.047098,-0.90492 a 0.09960816,0.09960816 0 0 0 -0.1163101,-0.10267 l -0.900758,0.15824 0.1216221,-0.33544 a 0.06815295,0.06815295 0 0 0 -0.020965,-0.0765 l -0.9866263,-0.7991 0.2222793,-0.10367 a 0.06815295,0.06815295 0 0 0 0.035613,-0.0829 l -0.1949961,-0.59978 0.5683364,0.12061 a 0.06815295,0.06815295 0 0 0 0.076534,-0.0399 l 0.1099927,-0.2589 0.4435625,0.47601 a 0.06815295,0.06815295 0 0 0 0.1164538,-0.0597 l -0.2139533,-1.10308 0.3429001,0.19816 a 0.06815295,0.06815295 0 0 0 0.095345,-0.0283 z"
       id="path2048" />
  </g>
</svg>
