<?xml version="1.0" encoding="UTF-8" standalone="no"?>
<!-- Created with Inkscape (http://www.inkscape.org/) -->

<svg
   xmlns:dc="http://purl.org/dc/elements/1.1/"
   xmlns:cc="http://creativecommons.org/ns#"
   xmlns:rdf="http://www.w3.org/1999/02/22-rdf-syntax-ns#"
   xmlns:svg="http://www.w3.org/2000/svg"
   xmlns="http://www.w3.org/2000/svg"
   xmlns:sodipodi="http://sodipodi.sourceforge.net/DTD/sodipodi-0.dtd"
   xmlns:inkscape="http://www.inkscape.org/namespaces/inkscape"
   width="6.5426531mm"
   height="8.0077009mm"
   viewBox="0 0 6.5426531 8.0077008"
   version="1.1"
   id="svg6873"
   inkscape:version="0.92.5 (2060ec1f9f, 2020-04-08)"
   sodipodi:docname="erlenmeyerflask.svg">
  <defs
     id="defs6867" />
  <sodipodi:namedview
     id="base"
     pagecolor="#ffffff"
     bordercolor="#666666"
     borderopacity="1.0"
     inkscape:pageopacity="0.0"
     inkscape:pageshadow="2"
     inkscape:zoom="1.979899"
     inkscape:cx="15.945958"
     inkscape:cy="-75.704019"
     inkscape:document-units="mm"
     inkscape:current-layer="layer1"
     showgrid="false"
     inkscape:window-width="1920"
     inkscape:window-height="1052"
     inkscape:window-x="1920"
     inkscape:window-y="0"
     inkscape:window-maximized="1" />
  <metadata
     id="metadata6870">
    <rdf:RDF>
      <cc:Work
         rdf:about="">
        <dc:format>image/svg+xml</dc:format>
        <dc:type
           rdf:resource="http://purl.org/dc/dcmitype/StillImage" />
        <dc:title></dc:title>
      </cc:Work>
    </rdf:RDF>
  </metadata>
  <g
     inkscape:label="Layer 1"
     inkscape:groupmode="layer"
     id="layer1"
     transform="translate(-94.246532,-182.62711)">
    <g
       id="g6832"
       transform="matrix(0.01564004,0,0,0.01564004,93.514009,182.62711)"
       style="fill:#00c49d;fill-opacity:1;stroke-width:16.91705704">
      <g
         id="g6748"
         style="fill:#00c49d;fill-opacity:1;stroke-width:16.91705704">
        <g
           id="g6746"
           style="fill:#00c49d;fill-opacity:1;stroke-width:16.91705704">
          <path
             id="path6744"
             d="M 454.352,398.431 331,190.879 V 87.42 C 348.459,81.228 361,64.555 361,45 361,20.187 340.813,0 316,0 H 196 c -24.813,0 -45,20.187 -45,45 0,19.555 12.541,36.228 30,42.42 V 190.879 L 57.659,398.413 C 43.574,421.889 43.217,450.128 56.706,473.952 70.196,497.776 94.594,512 121.972,512 h 268.055 c 27.378,0 51.776,-14.224 65.266,-38.048 13.486,-23.818 13.134,-52.049 -0.941,-75.521 z M 196,30 h 120 c 8.271,0 15,6.729 15,15 0,8.271 -6.729,15 -15,15 H 196 c -8.271,0 -15,-6.729 -15,-15 0,-8.271 6.729,-15 15,-15 z m 12.895,172.664 C 210.273,200.345 211,197.698 211,195 V 90 h 90 v 30 h -15 c -8.284,0 -15,6.716 -15,15 0,8.284 6.716,15 15,15 h 15 v 30 h -15 c -8.284,0 -15,6.716 -15,15 0,8.284 6.716,15 15,15 h 21.466 l 65.8,110.716 C 362.112,326.413 347.079,332 331,332 c -34.968,0 -64.739,-25.95 -65.036,-26.213 0,0 -10e-4,-10e-4 -0.002,-10e-4 C 264.139,304.162 227.422,272 181,272 c -4.587,0 -9.215,0.321 -13.872,0.94 z M 429.187,459.171 C 421.094,473.466 406.454,482 390.027,482 H 121.972 c -16.427,0 -31.066,-8.534 -39.16,-22.829 -8.093,-14.295 -7.88,-31.238 0.604,-45.377 L 144.917,310.312 C 157.353,304.799 169.477,302 181,302 c 34.968,0 64.74,25.951 65.006,26.186 1.545,1.38 38.384,33.814 84.994,33.814 22.25,0 42.237,-7.287 57.631,-15.43 l 39.953,67.224 c 0.011,0.018 0.021,0.036 0.032,0.054 8.451,14.085 8.665,31.028 0.571,45.323 z"
             inkscape:connector-curvature="0"
             style="fill:#00c49d;fill-opacity:1;stroke-width:16.91705704" />
        </g>
      </g>
      <g
         id="g6754"
         style="fill:#00c49d;fill-opacity:1;stroke-width:16.91705704">
        <g
           id="g6752"
           style="fill:#00c49d;fill-opacity:1;stroke-width:16.91705704" />
      </g>
      <g
         id="g6760"
         style="fill:#00c49d;fill-opacity:1;stroke-width:16.91705704">
        <g
           id="g6758"
           style="fill:#00c49d;fill-opacity:1;stroke-width:16.91705704" />
      </g>
      <g
         id="g6766"
         style="fill:#00c49d;fill-opacity:1;stroke-width:16.91705704">
        <g
           id="g6764"
           style="fill:#00c49d;fill-opacity:1;stroke-width:16.91705704" />
      </g>
      <g
         id="g6768"
         style="fill:#00c49d;fill-opacity:1;stroke-width:16.91705704" />
      <g
         id="g6770"
         style="fill:#00c49d;fill-opacity:1;stroke-width:16.91705704" />
      <g
         id="g6772"
         style="fill:#00c49d;fill-opacity:1;stroke-width:16.91705704" />
      <g
         id="g6774"
         style="fill:#00c49d;fill-opacity:1;stroke-width:16.91705704" />
      <g
         id="g6776"
         style="fill:#00c49d;fill-opacity:1;stroke-width:16.91705704" />
      <g
         id="g6778"
         style="fill:#00c49d;fill-opacity:1;stroke-width:16.91705704" />
      <g
         id="g6780"
         style="fill:#00c49d;fill-opacity:1;stroke-width:16.91705704" />
      <g
         id="g6782"
         style="fill:#00c49d;fill-opacity:1;stroke-width:16.91705704" />
      <g
         id="g6784"
         style="fill:#00c49d;fill-opacity:1;stroke-width:16.91705704" />
      <g
         id="g6786"
         style="fill:#00c49d;fill-opacity:1;stroke-width:16.91705704" />
      <g
         id="g6788"
         style="fill:#00c49d;fill-opacity:1;stroke-width:16.91705704" />
      <g
         id="g6790"
         style="fill:#00c49d;fill-opacity:1;stroke-width:16.91705704" />
      <g
         id="g6792"
         style="fill:#00c49d;fill-opacity:1;stroke-width:16.91705704" />
      <g
         id="g6794"
         style="fill:#00c49d;fill-opacity:1;stroke-width:16.91705704" />
      <g
         id="g6796"
         style="fill:#00c49d;fill-opacity:1;stroke-width:16.91705704" />
    </g>
  </g>
</svg>
