<?xml version="1.0" encoding="UTF-8" standalone="no"?>
<svg
   xmlns:dc="http://purl.org/dc/elements/1.1/"
   xmlns:cc="http://creativecommons.org/ns#"
   xmlns:rdf="http://www.w3.org/1999/02/22-rdf-syntax-ns#"
   xmlns:svg="http://www.w3.org/2000/svg"
   xmlns="http://www.w3.org/2000/svg"
   xmlns:sodipodi="http://sodipodi.sourceforge.net/DTD/sodipodi-0.dtd"
   xmlns:inkscape="http://www.inkscape.org/namespaces/inkscape"
   height="24"
   width="37.073952"
   version="1.1"
   x="0px"
   y="0px"
   viewBox="0 0 12.357984 8"
   style="fill:#000000"
   xml:space="preserve"
   id="svg6"
   sodipodi:docname="grad-hat.svg"
   inkscape:version="0.92.5 (2060ec1f9f, 2020-04-08)"><metadata
     id="metadata12"><rdf:RDF><cc:Work
         rdf:about=""><dc:format>image/svg+xml</dc:format><dc:type
           rdf:resource="http://purl.org/dc/dcmitype/StillImage" /></cc:Work></rdf:RDF></metadata><defs
     id="defs10" /><sodipodi:namedview
     pagecolor="#ffffff"
     bordercolor="#666666"
     borderopacity="1"
     objecttolerance="10"
     gridtolerance="10"
     guidetolerance="10"
     inkscape:pageopacity="0"
     inkscape:pageshadow="2"
     inkscape:window-width="1920"
     inkscape:window-height="1052"
     id="namedview8"
     showgrid="false"
     inkscape:zoom="12.586667"
     inkscape:cx="11.252096"
     inkscape:cy="22.946015"
     inkscape:window-x="0"
     inkscape:window-y="0"
     inkscape:window-maximized="1"
     inkscape:current-layer="svg6" /><g
     id="g4"
     transform="matrix(0.12545146,0,0,0.12545146,-0.08783667,-2.2694369)"
     style="stroke-width:7.97121;fill:#00c49d;fill-opacity:1"><path
       d="M 93.5,36.3 51,20.7 c -0.7,-0.2 -1.4,-0.2 -2.1,0 L 6.5,36.3 c -1.2,0.4 -2,1.5 -2,2.8 0,1.2 0.7,2.4 1.9,2.8 L 18,46.4 v 24.8 c 0,1.3 0.8,2.4 1.9,2.8 9.7,3.6 19.9,5.4 30,5.4 10.1,0 20.3,-1.8 30,-5.4 1.2,-0.4 1.9,-1.6 1.9,-2.8 V 46.4 l 6.6,-2.6 v 27.5 h 6 v -30 c 0.6,-0.6 1,-1.4 1,-2.2 0.1,-1.3 -0.7,-2.4 -1.9,-2.8 z M 76,69.1 c -16.8,5.8 -35.1,5.8 -52,0 V 48.8 l 24.9,9.7 c 0.4,0.1 0.7,0.2 1.1,0.2 0.4,0 0.7,-0.1 1.1,-0.2 L 76,48.8 Z M 50,52.5 16,39.2 50,26.7 84,39.2 Z"
       id="path2"
       inkscape:connector-curvature="0"
       style="stroke-width:7.97121;fill:#00c49d;fill-opacity:1" /></g></svg>