<?xml version="1.0" encoding="UTF-8" standalone="no"?>
<!-- Created with Inkscape (http://www.inkscape.org/) -->

<svg
   xmlns:dc="http://purl.org/dc/elements/1.1/"
   xmlns:cc="http://creativecommons.org/ns#"
   xmlns:rdf="http://www.w3.org/1999/02/22-rdf-syntax-ns#"
   xmlns:svg="http://www.w3.org/2000/svg"
   xmlns="http://www.w3.org/2000/svg"
   xmlns:sodipodi="http://sodipodi.sourceforge.net/DTD/sodipodi-0.dtd"
   xmlns:inkscape="http://www.inkscape.org/namespaces/inkscape"
   width="30.240911"
   height="38.486328"
   viewBox="0 0 8.0012408 10.182841"
   version="1.1"
   id="svg11478"
   sodipodi:docname="microscope.svg"
   inkscape:version="0.92.5 (2060ec1f9f, 2020-04-08)">
  <defs
     id="defs11472" />
  <sodipodi:namedview
     id="base"
     pagecolor="#ffffff"
     bordercolor="#666666"
     borderopacity="1.0"
     inkscape:pageopacity="0.0"
     inkscape:pageshadow="2"
     inkscape:zoom="16"
     inkscape:cx="20.835202"
     inkscape:cy="21.072552"
     inkscape:document-units="mm"
     inkscape:current-layer="layer1"
     showgrid="false"
     units="px"
     inkscape:window-width="1920"
     inkscape:window-height="1052"
     inkscape:window-x="1920"
     inkscape:window-y="0"
     inkscape:window-maximized="1" />
  <metadata
     id="metadata11475">
    <rdf:RDF>
      <cc:Work
         rdf:about="">
        <dc:format>image/svg+xml</dc:format>
        <dc:type
           rdf:resource="http://purl.org/dc/dcmitype/StillImage" />
        <dc:title />
      </cc:Work>
    </rdf:RDF>
  </metadata>
  <g
     inkscape:label="Layer 1"
     inkscape:groupmode="layer"
     id="layer1"
     transform="translate(-14.087278,-75.533702)">
    <path
       style="color:#000000;font-style:normal;font-variant:normal;font-weight:normal;font-stretch:normal;font-size:medium;line-height:normal;font-family:sans-serif;font-variant-ligatures:normal;font-variant-position:normal;font-variant-caps:normal;font-variant-numeric:normal;font-variant-alternates:normal;font-feature-settings:normal;text-indent:0;text-align:start;text-decoration:none;text-decoration-line:none;text-decoration-style:solid;text-decoration-color:#000000;letter-spacing:normal;word-spacing:normal;text-transform:none;writing-mode:lr-tb;direction:ltr;text-orientation:mixed;dominant-baseline:auto;baseline-shift:baseline;text-anchor:start;white-space:normal;shape-padding:0;clip-rule:nonzero;display:inline;overflow:visible;visibility:visible;opacity:1;isolation:auto;mix-blend-mode:normal;color-interpolation:sRGB;color-interpolation-filters:linearRGB;solid-color:#000000;solid-opacity:1;vector-effect:none;fill:#00c49d;fill-opacity:1;fill-rule:nonzero;stroke:none;stroke-width:0.30145571;stroke-linecap:round;stroke-linejoin:miter;stroke-miterlimit:4;stroke-dasharray:none;stroke-dashoffset:0;stroke-opacity:1;color-rendering:auto;image-rendering:auto;shape-rendering:auto;text-rendering:auto;enable-background:accumulate"
       d="m 20.357409,75.533702 -0.137334,0.181946 -0.347271,0.472359 c -3.29e-4,4.5e-4 -0.02609,0.05278 -0.02624,0.05336 -1.48e-4,5.72e-4 -0.0035,0.04568 -0.0035,0.04636 3e-5,6.91e-4 0.0032,0.02893 0.0035,0.02974 2.03e-4,8.08e-4 0.008,0.01653 0.0105,0.02274 0.01016,0.02505 0.01761,0.0385 0.02624,0.04986 0.01727,0.02272 0.0357,0.04037 0.05598,0.05948 0.04056,0.03822 0.09149,0.0806 0.152205,0.125088 v -0.0035 l 0.03674,0.02974 -0.651681,0.886111 c -0.0691,-0.04926 -0.145314,-0.08162 -0.224808,-0.08922 -0.08191,-0.0078 -0.185804,0.01425 -0.248426,0.09972 l -2.597976,3.550567 c -0.06253,0.08536 -0.05223,0.188386 -0.02012,0.264171 0.03211,0.07578 0.08476,0.140542 0.155704,0.192443 l 0.776768,0.568581 c 0.07084,0.0519 0.14642,0.0849 0.228307,0.09272 0.08189,0.0078 0.184895,-0.01426 0.247551,-0.09972 l 1.283243,-1.752103 -0.04374,-0.08223 c -0.04748,-0.09242 -0.07267,-0.194405 -0.0726,-0.298286 3e-5,-0.362316 0.292869,-0.654271 0.655179,-0.654305 0.03524,0 0.07165,0.003 0.108468,0.0096 l 0.08922,0.01662 0.582577,-0.78989 c 0.06261,-0.08548 0.0513,-0.188321 0.01924,-0.264171 -0.03147,-0.07443 -0.08572,-0.137505 -0.154829,-0.188943 l 0.650806,-0.888736 0.03674,0.02624 c 0.0608,0.04457 0.116576,0.08224 0.165326,0.109343 0.02437,0.01354 0.04576,0.0263 0.0726,0.03586 0.01337,0.0047 0.02909,0.0083 0.05598,0.0105 0.0068,5.3e-4 0.02279,5.1e-5 0.02362,0 8.29e-4,-4.9e-5 0.03171,-0.0032 0.03237,-0.0035 6.67e-4,-1.79e-4 0.03973,-0.0198 0.04024,-0.02012 5e-4,-3.13e-4 0.04254,-0.03891 0.04286,-0.03936 l 0.482857,-0.65518 -0.118965,-0.08922 c 0,0 -0.836913,-0.628904 -1.272746,-0.932472 z"
       id="rect11396"
       inkscape:connector-curvature="0" />
    <path
       style="color:#000000;font-style:normal;font-variant:normal;font-weight:normal;font-stretch:normal;font-size:medium;line-height:normal;font-family:sans-serif;font-variant-ligatures:normal;font-variant-position:normal;font-variant-caps:normal;font-variant-numeric:normal;font-variant-alternates:normal;font-feature-settings:normal;text-indent:0;text-align:start;text-decoration:none;text-decoration-line:none;text-decoration-style:solid;text-decoration-color:#000000;letter-spacing:normal;word-spacing:normal;text-transform:none;writing-mode:lr-tb;direction:ltr;text-orientation:mixed;dominant-baseline:auto;baseline-shift:baseline;text-anchor:start;white-space:normal;shape-padding:0;clip-rule:nonzero;display:inline;overflow:visible;visibility:visible;opacity:1;isolation:auto;mix-blend-mode:normal;color-interpolation:sRGB;color-interpolation-filters:linearRGB;solid-color:#000000;solid-opacity:1;vector-effect:none;fill:#00c49d;fill-opacity:1;fill-rule:nonzero;stroke:none;stroke-width:0.30145571;stroke-linecap:round;stroke-linejoin:miter;stroke-miterlimit:4;stroke-dasharray:none;stroke-dashoffset:0;stroke-opacity:1;color-rendering:auto;image-rendering:auto;shape-rendering:auto;text-rendering:auto;enable-background:accumulate"
       d="m 20.391524,80.181192 a 0.15074293,0.15074293 0 0 0 -0.01574,8.75e-4 0.15074293,0.15074293 0 0 0 -0.0796,0.26767 c 0.0043,0.0035 0.0079,0.0078 0.01225,0.01137 l -0.06123,0.06473 c -0.03076,0.03252 -0.108261,0.09774 -0.152205,0.125962 l -0.185444,0.115466 0.244927,0.244052 c 0.316683,0.316739 0.501727,0.6113 0.644683,1.025194 0.246252,0.713008 0.157444,1.541418 -0.235305,2.192097 l -0.154829,0.258049 h 0.396257 0.304409 l 0.0035,-0.007 h 0.251925 c 0.280315,-0.538433 0.417347,-1.146317 0.38576,-1.765224 -0.0497,-0.973868 -0.506982,-1.880762 -1.263124,-2.496505 a 0.15074293,0.15074293 0 0 0 -0.09622,-0.03674 z"
       id="circle11408"
       inkscape:connector-curvature="0" />
    <path
       style="color:#000000;font-style:normal;font-variant:normal;font-weight:normal;font-stretch:normal;font-size:medium;line-height:normal;font-family:sans-serif;font-variant-ligatures:normal;font-variant-position:normal;font-variant-caps:normal;font-variant-numeric:normal;font-variant-alternates:normal;font-feature-settings:normal;text-indent:0;text-align:start;text-decoration:none;text-decoration-line:none;text-decoration-style:solid;text-decoration-color:#000000;letter-spacing:normal;word-spacing:normal;text-transform:none;writing-mode:lr-tb;direction:ltr;text-orientation:mixed;dominant-baseline:auto;baseline-shift:baseline;text-anchor:start;white-space:normal;shape-padding:0;clip-rule:nonzero;display:inline;overflow:visible;visibility:visible;opacity:1;isolation:auto;mix-blend-mode:normal;color-interpolation:sRGB;color-interpolation-filters:linearRGB;solid-color:#000000;solid-opacity:1;vector-effect:none;fill:#00c49d;fill-opacity:1;fill-rule:nonzero;stroke:none;stroke-width:0.30145571;stroke-linecap:round;stroke-linejoin:miter;stroke-miterlimit:4;stroke-dasharray:none;stroke-dashoffset:0;stroke-opacity:1;color-rendering:auto;image-rendering:auto;shape-rendering:auto;text-rendering:auto;enable-background:accumulate"
       d="m 19.690858,80.580948 a 0.15074293,0.15074293 0 0 0 -0.08222,0.279042 c 0.614618,0.393425 1.019136,1.045846 1.097798,1.771347 0.0732,0.675095 -0.144529,1.342798 -0.59045,1.848324 h 0.38576 c 0.391132,-0.539816 0.575056,-1.207813 0.502101,-1.880689 -0.08848,-0.816049 -0.542055,-1.54838 -1.233383,-1.990907 a 0.15074293,0.15074293 0 0 0 -0.0656,-0.02624 0.15074293,0.15074293 0 0 0 -0.014,-8.75e-4 z"
       id="circle11410"
       inkscape:connector-curvature="0" />
    <path
       style="color:#000000;font-style:normal;font-variant:normal;font-weight:normal;font-stretch:normal;font-size:medium;line-height:normal;font-family:sans-serif;font-variant-ligatures:normal;font-variant-position:normal;font-variant-caps:normal;font-variant-numeric:normal;font-variant-alternates:normal;font-feature-settings:normal;text-indent:0;text-align:start;text-decoration:none;text-decoration-line:none;text-decoration-style:solid;text-decoration-color:#000000;letter-spacing:normal;word-spacing:normal;text-transform:none;writing-mode:lr-tb;direction:ltr;text-orientation:mixed;dominant-baseline:auto;baseline-shift:baseline;text-anchor:start;white-space:normal;shape-padding:0;clip-rule:nonzero;display:inline;overflow:visible;visibility:visible;opacity:1;isolation:auto;mix-blend-mode:normal;color-interpolation:sRGB;color-interpolation-filters:linearRGB;solid-color:#000000;solid-opacity:1;vector-effect:none;fill:#00c49d;fill-opacity:1;fill-rule:nonzero;stroke:none;stroke-width:0.30145571;stroke-linecap:round;stroke-linejoin:miter;stroke-miterlimit:4;stroke-dasharray:none;stroke-dashoffset:0;stroke-opacity:1;color-rendering:auto;image-rendering:auto;shape-rendering:auto;text-rendering:auto;enable-background:accumulate"
       d="m 19.615304,78.978477 c -0.525266,0 -0.955463,0.430197 -0.955463,0.955463 0,0.525266 0.430197,0.952157 0.955463,0.952157 0.525267,0 0.952157,-0.426891 0.952157,-0.952157 0,-0.525266 -0.42689,-0.955463 -0.952157,-0.955463 z m 0,0.300855 c 0.362348,0 0.651302,0.29226 0.651302,0.654608 0,0.362348 -0.288954,0.651303 -0.651302,0.651301 -0.362346,0 -0.654607,-0.288953 -0.654607,-0.651301 0,-0.362348 0.292261,-0.654608 0.654607,-0.654608 z"
       id="path11406"
       inkscape:connector-curvature="0" />
    <path
       style="color:#000000;font-style:normal;font-variant:normal;font-weight:normal;font-stretch:normal;font-size:medium;line-height:normal;font-family:sans-serif;font-variant-ligatures:normal;font-variant-position:normal;font-variant-caps:normal;font-variant-numeric:normal;font-variant-alternates:normal;font-feature-settings:normal;text-indent:0;text-align:start;text-decoration:none;text-decoration-line:none;text-decoration-style:solid;text-decoration-color:#000000;letter-spacing:normal;word-spacing:normal;text-transform:none;writing-mode:lr-tb;direction:ltr;text-orientation:mixed;dominant-baseline:auto;baseline-shift:baseline;text-anchor:start;white-space:normal;shape-padding:0;clip-rule:nonzero;display:inline;overflow:visible;visibility:visible;opacity:1;isolation:auto;mix-blend-mode:normal;color-interpolation:sRGB;color-interpolation-filters:linearRGB;solid-color:#000000;solid-opacity:1;vector-effect:none;fill:#00c49d;fill-opacity:1;fill-rule:nonzero;stroke:none;stroke-width:0.30145568;stroke-linecap:round;stroke-linejoin:miter;stroke-miterlimit:4;stroke-dasharray:none;stroke-dashoffset:0;stroke-opacity:1;color-rendering:auto;image-rendering:auto;shape-rendering:auto;text-rendering:auto;enable-background:accumulate"
       d="m 14.738958,84.41668 c -0.3571,0 -0.65168,0.294581 -0.65168,0.651681 0,0.3571 0.29458,0.648182 0.65168,0.648182 h 6.701378 c 0.357101,0 0.648183,-0.291082 0.648183,-0.648182 0,-0.3571 -0.291082,-0.651681 -0.648183,-0.651681 z"
       id="rect11414"
       inkscape:connector-curvature="0" />
    <rect
       style="opacity:1;fill:#00c49d;fill-opacity:1;stroke:none;stroke-width:0.30145568;stroke-linecap:round;stroke-linejoin:miter;stroke-miterlimit:4;stroke-dasharray:none;stroke-opacity:1"
       id="rect11420"
       width="3.159656"
       height="0.61184084"
       x="14.791224"
       y="83.225861"
       rx="0.30592042"
       ry="0.30592042" />
    <g
       id="g11428"
       transform="matrix(0.78097331,0,0,0.78097331,172.28125,-207.25188)">
      <rect
         transform="rotate(90)"
         style="opacity:1;fill:#00c49d;fill-opacity:1;stroke:none;stroke-width:0.38599998;stroke-linecap:round;stroke-linejoin:miter;stroke-miterlimit:4;stroke-dasharray:none;stroke-opacity:1"
         id="rect11422"
         width="1.337339"
         height="0.55192339"
         x="372.44171"
         y="200.09059"
         rx="0.37408665"
         ry="0.2759617" />
      <rect
         ry="0.2759617"
         rx="0.37408665"
         y="198.62897"
         x="372.44171"
         height="0.55192339"
         width="1.337339"
         id="rect11424"
         style="opacity:1;fill:#00c49d;fill-opacity:1;stroke:none;stroke-width:0.38599998;stroke-linecap:round;stroke-linejoin:miter;stroke-miterlimit:4;stroke-dasharray:none;stroke-opacity:1"
         transform="rotate(90)" />
    </g>
  </g>
</svg>
