<?xml version="1.0" encoding="UTF-8" standalone="no"?>
<!-- Created with Inkscape (http://www.inkscape.org/) -->

<svg
   xmlns:dc="http://purl.org/dc/elements/1.1/"
   xmlns:cc="http://creativecommons.org/ns#"
   xmlns:rdf="http://www.w3.org/1999/02/22-rdf-syntax-ns#"
   xmlns:svg="http://www.w3.org/2000/svg"
   xmlns="http://www.w3.org/2000/svg"
   xmlns:sodipodi="http://sodipodi.sourceforge.net/DTD/sodipodi-0.dtd"
   xmlns:inkscape="http://www.inkscape.org/namespaces/inkscape"
   width="24.129154"
   height="30.708155"
   viewBox="0 0 6.3841718 8.1248659"
   version="1.1"
   id="svg11478"
   sodipodi:docname="microscope.svg"
   inkscape:version="0.92.5 (2060ec1f9f, 2020-04-08)">
  <defs
     id="defs11472" />
  <sodipodi:namedview
     id="base"
     pagecolor="#ffffff"
     bordercolor="#666666"
     borderopacity="1.0"
     inkscape:pageopacity="0.0"
     inkscape:pageshadow="2"
     inkscape:zoom="11.313709"
     inkscape:cx="8.6617092"
     inkscape:cy="22.049902"
     inkscape:document-units="mm"
     inkscape:current-layer="layer1"
     showgrid="false"
     units="px"
     inkscape:window-width="1920"
     inkscape:window-height="1052"
     inkscape:window-x="1920"
     inkscape:window-y="0"
     inkscape:window-maximized="1" />
  <metadata
     id="metadata11475">
    <rdf:RDF>
      <cc:Work
         rdf:about="">
        <dc:format>image/svg+xml</dc:format>
        <dc:type
           rdf:resource="http://purl.org/dc/dcmitype/StillImage" />
        <dc:title />
      </cc:Work>
    </rdf:RDF>
  </metadata>
  <g
     inkscape:label="Layer 1"
     inkscape:groupmode="layer"
     id="layer1"
     transform="translate(-14.895812,-76.562687)">
    <path
       style="color:#000000;font-style:normal;font-variant:normal;font-weight:normal;font-stretch:normal;font-size:medium;line-height:normal;font-family:sans-serif;font-variant-ligatures:normal;font-variant-position:normal;font-variant-caps:normal;font-variant-numeric:normal;font-variant-alternates:normal;font-feature-settings:normal;text-indent:0;text-align:start;text-decoration:none;text-decoration-line:none;text-decoration-style:solid;text-decoration-color:#000000;letter-spacing:normal;word-spacing:normal;text-transform:none;writing-mode:lr-tb;direction:ltr;text-orientation:mixed;dominant-baseline:auto;baseline-shift:baseline;text-anchor:start;white-space:normal;shape-padding:0;clip-rule:nonzero;display:inline;overflow:visible;visibility:visible;opacity:1;isolation:auto;mix-blend-mode:normal;color-interpolation:sRGB;color-interpolation-filters:linearRGB;solid-color:#000000;solid-opacity:1;vector-effect:none;fill:#00c49d;fill-opacity:1;fill-rule:nonzero;stroke:none;stroke-width:0.30145568;stroke-linecap:round;stroke-linejoin:miter;stroke-miterlimit:4;stroke-dasharray:none;stroke-dashoffset:0;stroke-opacity:1;color-rendering:auto;image-rendering:auto;shape-rendering:auto;text-rendering:auto;enable-background:accumulate"
       d="m 19.731946,76.936864 -0.09949,0.131804 -0.251565,0.342179 c -2.37e-4,3.27e-4 -0.0189,0.03823 -0.019,0.03865 -1.08e-4,4.14e-4 -0.0025,0.03309 -0.0025,0.03358 2.2e-5,5e-4 0.0024,0.02095 0.0025,0.02155 1.46e-4,5.85e-4 0.0058,0.01197 0.0076,0.01648 0.0074,0.01815 0.01276,0.02789 0.019,0.03612 0.01251,0.01645 0.02586,0.02924 0.04056,0.04308 0.02938,0.02768 0.06627,0.0584 0.110259,0.09062 v -0.0025 l 0.02662,0.02154 -0.472081,0.641905 c -0.05005,-0.03568 -0.105265,-0.05913 -0.162853,-0.06462 -0.05933,-0.0056 -0.134597,0.01036 -0.179961,0.07224 l -1.881989,2.572051 c -0.04529,0.06183 -0.03784,0.136469 -0.01457,0.191367 0.02327,0.0549 0.0614,0.101806 0.112792,0.139408 l 0.562695,0.411883 c 0.05131,0.0376 0.106066,0.0615 0.165388,0.06717 0.05932,0.0056 0.133938,-0.01036 0.179326,-0.07224 l 0.92959,-1.269234 -0.03169,-0.05957 c -0.03439,-0.06695 -0.05265,-0.140827 -0.05259,-0.216079 2.3e-5,-0.262464 0.212156,-0.473959 0.474616,-0.473983 0.02553,0 0.0519,0.0022 0.07857,0.0069 l 0.06462,0.01205 0.422022,-0.572201 c 0.04536,-0.06193 0.03717,-0.13642 0.01394,-0.191367 -0.0228,-0.05392 -0.0621,-0.09961 -0.112158,-0.136872 l 0.471446,-0.643805 0.02662,0.019 c 0.04404,0.03229 0.08444,0.05958 0.119763,0.07921 0.01765,0.0098 0.03316,0.01905 0.0526,0.02597 0.0097,0.0035 0.02108,0.006 0.04055,0.0075 0.0049,3.84e-4 0.01651,3.7e-5 0.01711,0 6e-4,-3.5e-5 0.02297,-0.0024 0.02344,-0.0025 4.83e-4,-1.29e-4 0.02879,-0.01434 0.02915,-0.01457 3.62e-4,-2.27e-4 0.03081,-0.02819 0.03105,-0.02851 l 0.349785,-0.474616 -0.08619,-0.06462 c 0,0 -0.606265,-0.455582 -0.921986,-0.675488 z"
       id="rect11396"
       inkscape:connector-curvature="0" />
    <path
       style="color:#000000;font-style:normal;font-variant:normal;font-weight:normal;font-stretch:normal;font-size:medium;line-height:normal;font-family:sans-serif;font-variant-ligatures:normal;font-variant-position:normal;font-variant-caps:normal;font-variant-numeric:normal;font-variant-alternates:normal;font-feature-settings:normal;text-indent:0;text-align:start;text-decoration:none;text-decoration-line:none;text-decoration-style:solid;text-decoration-color:#000000;letter-spacing:normal;word-spacing:normal;text-transform:none;writing-mode:lr-tb;direction:ltr;text-orientation:mixed;dominant-baseline:auto;baseline-shift:baseline;text-anchor:start;white-space:normal;shape-padding:0;clip-rule:nonzero;display:inline;overflow:visible;visibility:visible;opacity:1;isolation:auto;mix-blend-mode:normal;color-interpolation:sRGB;color-interpolation-filters:linearRGB;solid-color:#000000;solid-opacity:1;vector-effect:none;fill:#00c49d;fill-opacity:1;fill-rule:nonzero;stroke:none;stroke-width:0.30145568;stroke-linecap:round;stroke-linejoin:miter;stroke-miterlimit:4;stroke-dasharray:none;stroke-dashoffset:0;stroke-opacity:1;color-rendering:auto;image-rendering:auto;shape-rendering:auto;text-rendering:auto;enable-background:accumulate"
       d="m 19.756659,80.303534 a 0.10919908,0.10919908 0 0 0 -0.0114,6.35e-4 0.10919908,0.10919908 0 0 0 -0.05767,0.193901 c 0.0031,0.0025 0.0058,0.0056 0.0089,0.0083 l -0.04435,0.04689 c -0.02228,0.02355 -0.07842,0.0708 -0.110258,0.09125 l -0.134338,0.08364 0.177427,0.176793 c 0.229408,0.229447 0.363455,0.44283 0.467012,0.742656 0.178387,0.516508 0.114054,1.116613 -0.170456,1.587969 L 19.769368,83.4225 h 0.28705 0.220516 l 0.0025,-0.005 h 0.182495 c 0.203063,-0.390044 0.302329,-0.830399 0.279447,-1.27874 -0.036,-0.705475 -0.367261,-1.362434 -0.915014,-1.808482 a 0.10919908,0.10919908 0 0 0 -0.0697,-0.02662 z"
       id="circle11408"
       inkscape:connector-curvature="0" />
    <path
       style="color:#000000;font-style:normal;font-variant:normal;font-weight:normal;font-stretch:normal;font-size:medium;line-height:normal;font-family:sans-serif;font-variant-ligatures:normal;font-variant-position:normal;font-variant-caps:normal;font-variant-numeric:normal;font-variant-alternates:normal;font-feature-settings:normal;text-indent:0;text-align:start;text-decoration:none;text-decoration-line:none;text-decoration-style:solid;text-decoration-color:#000000;letter-spacing:normal;word-spacing:normal;text-transform:none;writing-mode:lr-tb;direction:ltr;text-orientation:mixed;dominant-baseline:auto;baseline-shift:baseline;text-anchor:start;white-space:normal;shape-padding:0;clip-rule:nonzero;display:inline;overflow:visible;visibility:visible;opacity:1;isolation:auto;mix-blend-mode:normal;color-interpolation:sRGB;color-interpolation-filters:linearRGB;solid-color:#000000;solid-opacity:1;vector-effect:none;fill:#00c49d;fill-opacity:1;fill-rule:nonzero;stroke:none;stroke-width:0.30145568;stroke-linecap:round;stroke-linejoin:miter;stroke-miterlimit:4;stroke-dasharray:none;stroke-dashoffset:0;stroke-opacity:1;color-rendering:auto;image-rendering:auto;shape-rendering:auto;text-rendering:auto;enable-background:accumulate"
       d="m 19.249092,80.59312 a 0.10919908,0.10919908 0 0 0 -0.05956,0.20214 c 0.445233,0.284999 0.738269,0.757617 0.795252,1.283174 0.05302,0.489043 -0.104699,0.972731 -0.427726,1.338937 h 0.279447 c 0.283338,-0.391046 0.416574,-0.874947 0.363726,-1.362383 -0.0641,-0.591151 -0.392669,-1.121656 -0.893471,-1.442224 a 0.10919908,0.10919908 0 0 0 -0.04752,-0.019 0.10919908,0.10919908 0 0 0 -0.01014,-6.34e-4 z"
       id="circle11410"
       inkscape:connector-curvature="0" />
    <path
       style="color:#000000;font-style:normal;font-variant:normal;font-weight:normal;font-stretch:normal;font-size:medium;line-height:normal;font-family:sans-serif;font-variant-ligatures:normal;font-variant-position:normal;font-variant-caps:normal;font-variant-numeric:normal;font-variant-alternates:normal;font-feature-settings:normal;text-indent:0;text-align:start;text-decoration:none;text-decoration-line:none;text-decoration-style:solid;text-decoration-color:#000000;letter-spacing:normal;word-spacing:normal;text-transform:none;writing-mode:lr-tb;direction:ltr;text-orientation:mixed;dominant-baseline:auto;baseline-shift:baseline;text-anchor:start;white-space:normal;shape-padding:0;clip-rule:nonzero;display:inline;overflow:visible;visibility:visible;opacity:1;isolation:auto;mix-blend-mode:normal;color-interpolation:sRGB;color-interpolation-filters:linearRGB;solid-color:#000000;solid-opacity:1;vector-effect:none;fill:#00c49d;fill-opacity:1;fill-rule:nonzero;stroke:none;stroke-width:0.30145568;stroke-linecap:round;stroke-linejoin:miter;stroke-miterlimit:4;stroke-dasharray:none;stroke-dashoffset:0;stroke-opacity:1;color-rendering:auto;image-rendering:auto;shape-rendering:auto;text-rendering:auto;enable-background:accumulate"
       d="m 19.19436,79.432281 c -0.380506,0 -0.692144,0.311637 -0.692144,0.692142 0,0.380506 0.311638,0.689748 0.692144,0.689748 0.380507,0 0.689748,-0.309242 0.689748,-0.689748 0,-0.380505 -0.309241,-0.692142 -0.689748,-0.692142 z m 0,0.21794 c 0.262487,0 0.471807,0.211715 0.471807,0.474202 0,0.262488 -0.20932,0.471809 -0.471807,0.471807 -0.262485,0 -0.474201,-0.209319 -0.474201,-0.471807 0,-0.262487 0.211716,-0.474202 0.474201,-0.474202 z"
       id="path11406"
       inkscape:connector-curvature="0" />
    <path
       style="color:#000000;font-style:normal;font-variant:normal;font-weight:normal;font-stretch:normal;font-size:medium;line-height:normal;font-family:sans-serif;font-variant-ligatures:normal;font-variant-position:normal;font-variant-caps:normal;font-variant-numeric:normal;font-variant-alternates:normal;font-feature-settings:normal;text-indent:0;text-align:start;text-decoration:none;text-decoration-line:none;text-decoration-style:solid;text-decoration-color:#000000;letter-spacing:normal;word-spacing:normal;text-transform:none;writing-mode:lr-tb;direction:ltr;text-orientation:mixed;dominant-baseline:auto;baseline-shift:baseline;text-anchor:start;white-space:normal;shape-padding:0;clip-rule:nonzero;display:inline;overflow:visible;visibility:visible;opacity:1;isolation:auto;mix-blend-mode:normal;color-interpolation:sRGB;color-interpolation-filters:linearRGB;solid-color:#000000;solid-opacity:1;vector-effect:none;fill:#00c49d;fill-opacity:1;fill-rule:nonzero;stroke:none;stroke-width:0.30145568;stroke-linecap:round;stroke-linejoin:miter;stroke-miterlimit:4;stroke-dasharray:none;stroke-dashoffset:0;stroke-opacity:1;color-rendering:auto;image-rendering:auto;shape-rendering:auto;text-rendering:auto;enable-background:accumulate"
       d="m 15.661906,83.371747 c -0.258686,0 -0.472081,0.213396 -0.472081,0.472082 0,0.258685 0.213395,0.469547 0.472081,0.469547 h 4.854518 c 0.258687,0 0.469547,-0.210862 0.469547,-0.469547 0,-0.258686 -0.21086,-0.472082 -0.469547,-0.472082 z"
       id="rect11414"
       inkscape:connector-curvature="0" />
    <rect
       style="opacity:1;fill:#00c49d;fill-opacity:1;stroke:none;stroke-width:0.30145568;stroke-linecap:round;stroke-linejoin:miter;stroke-miterlimit:4;stroke-dasharray:none;stroke-opacity:1"
       id="rect11420"
       width="2.2888737"
       height="0.44322115"
       x="15.699768"
       y="82.509117"
       rx="0.22161058"
       ry="0.22161058" />
    <g
       id="g11428"
       transform="matrix(0.56574173,0,0,0.56574173,129.78648,-127.9147)"
       style="stroke-width:1.38044143">
      <rect
         transform="rotate(90)"
         style="opacity:1;fill:#00c49d;fill-opacity:1;stroke:none;stroke-width:0.53285038;stroke-linecap:round;stroke-linejoin:miter;stroke-miterlimit:4;stroke-dasharray:none;stroke-opacity:1"
         id="rect11422"
         width="1.337339"
         height="0.55192339"
         x="372.44171"
         y="200.09059"
         rx="0.37408665"
         ry="0.2759617" />
      <rect
         ry="0.2759617"
         rx="0.37408665"
         y="198.62897"
         x="372.44171"
         height="0.55192339"
         width="1.337339"
         id="rect11424"
         style="opacity:1;fill:#00c49d;fill-opacity:1;stroke:none;stroke-width:0.53285038;stroke-linecap:round;stroke-linejoin:miter;stroke-miterlimit:4;stroke-dasharray:none;stroke-opacity:1"
         transform="rotate(90)" />
    </g>
  </g>
</svg>
