<?xml version="1.0" encoding="UTF-8" standalone="no"?>
<!-- Created with Inkscape (http://www.inkscape.org/) -->

<svg
   xmlns:dc="http://purl.org/dc/elements/1.1/"
   xmlns:cc="http://creativecommons.org/ns#"
   xmlns:rdf="http://www.w3.org/1999/02/22-rdf-syntax-ns#"
   xmlns:svg="http://www.w3.org/2000/svg"
   xmlns="http://www.w3.org/2000/svg"
   xmlns:sodipodi="http://sodipodi.sourceforge.net/DTD/sodipodi-0.dtd"
   xmlns:inkscape="http://www.inkscape.org/namespaces/inkscape"
   width="17.864347"
   height="22.738852"
   viewBox="0 0 4.7266084 6.0163213"
   version="1.1"
   id="svg11478"
   sodipodi:docname="microscope.svg"
   inkscape:version="0.92.5 (2060ec1f9f, 2020-04-08)">
  <defs
     id="defs11472" />
  <sodipodi:namedview
     id="base"
     pagecolor="#ffffff"
     bordercolor="#666666"
     borderopacity="1.0"
     inkscape:pageopacity="0.0"
     inkscape:pageshadow="2"
     inkscape:zoom="256"
     inkscape:cx="14.216899"
     inkscape:cy="22.080629"
     inkscape:document-units="mm"
     inkscape:current-layer="layer1"
     showgrid="false"
     units="px"
     inkscape:window-width="1920"
     inkscape:window-height="1052"
     inkscape:window-x="1920"
     inkscape:window-y="0"
     inkscape:window-maximized="1" />
  <metadata
     id="metadata11475">
    <rdf:RDF>
      <cc:Work
         rdf:about="">
        <dc:format>image/svg+xml</dc:format>
        <dc:type
           rdf:resource="http://purl.org/dc/dcmitype/StillImage" />
        <dc:title></dc:title>
      </cc:Work>
    </rdf:RDF>
  </metadata>
  <g
     inkscape:label="Layer 1"
     inkscape:groupmode="layer"
     id="layer1"
     transform="translate(-15.72551,-77.616779)">
    <path
       style="color:#000000;font-style:normal;font-variant:normal;font-weight:normal;font-stretch:normal;font-size:medium;line-height:normal;font-family:sans-serif;font-variant-ligatures:normal;font-variant-position:normal;font-variant-caps:normal;font-variant-numeric:normal;font-variant-alternates:normal;font-feature-settings:normal;text-indent:0;text-align:start;text-decoration:none;text-decoration-line:none;text-decoration-style:solid;text-decoration-color:#000000;letter-spacing:normal;word-spacing:normal;text-transform:none;writing-mode:lr-tb;direction:ltr;text-orientation:mixed;dominant-baseline:auto;baseline-shift:baseline;text-anchor:start;white-space:normal;shape-padding:0;clip-rule:nonzero;display:inline;overflow:visible;visibility:visible;opacity:1;isolation:auto;mix-blend-mode:normal;color-interpolation:sRGB;color-interpolation-filters:linearRGB;solid-color:#000000;solid-opacity:1;vector-effect:none;fill:#00c49d;fill-opacity:1;fill-rule:nonzero;stroke:none;stroke-width:0.1780891;stroke-linecap:round;stroke-linejoin:miter;stroke-miterlimit:4;stroke-dasharray:none;stroke-dashoffset:0;stroke-opacity:1;color-rendering:auto;image-rendering:auto;shape-rendering:auto;text-rendering:auto;enable-background:accumulate"
       d="m 19.347654,77.724609 -0.205078,0.279297 c -1.94e-4,2.66e-4 -0.01554,0.03091 -0.01563,0.03125 -8.7e-5,3.38e-4 -0.002,0.02694 -0.002,0.02734 1.8e-5,4.08e-4 0.0018,0.0171 0.002,0.01758 1.2e-4,4.77e-4 0.0044,0.01 0.0059,0.01367 0.006,0.0148 0.01053,0.02259 0.01563,0.0293 0.0102,0.01342 0.02122,0.02387 0.0332,0.03516 0.02396,0.02258 0.05397,0.04794 0.08984,0.07422 v -0.002 l 0.02148,0.01758 -0.384766,0.523437 c -0.04082,-0.0291 -0.08585,-0.04824 -0.132812,-0.05273 -0.04839,-0.0046 -0.10949,0.0081 -0.146485,0.05859 L 17.09375,80.875 c -0.03694,0.05043 -0.03069,0.111479 -0.01172,0.15625 0.01897,0.04477 0.04989,0.08262 0.0918,0.113281 l 0.458984,0.335938 c 0.04185,0.03066 0.08639,0.05007 0.134766,0.05469 0.04838,0.0046 0.109469,-0.0081 0.146484,-0.05859 l 0.757813,-1.035156 -0.02539,-0.04883 c -0.02805,-0.0546 -0.04301,-0.114412 -0.04297,-0.175781 1.8e-5,-0.214043 0.172678,-0.386699 0.386718,-0.386719 0.02082,0 0.0427,0.002 0.06445,0.0059 l 0.05273,0.0098 0.34375,-0.466797 c 0.03699,-0.0505 0.03066,-0.111441 0.01172,-0.15625 -0.01859,-0.04397 -0.05097,-0.08094 -0.0918,-0.111328 l 0.384765,-0.52539 0.02148,0.01562 c 0.03592,0.02633 0.06886,0.04844 0.09766,0.06445 0.0144,0.008 0.02711,0.01583 0.04297,0.02148 0.0079,0.0028 0.01731,0.0046 0.0332,0.0059 0.004,3.13e-4 0.01318,3e-5 0.01367,0 4.9e-4,-2.9e-5 0.01914,-0.0018 0.01953,-0.002 3.94e-4,-1.06e-4 0.02314,-0.01153 0.02344,-0.01172 2.95e-4,-1.85e-4 0.0252,-0.02317 0.02539,-0.02344 l 0.285156,-0.386719 -0.07031,-0.05273 c 0,0 -0.494479,-0.371444 -0.751953,-0.550781 l -0.06768,-0.04883 -0.08074,0.107358 z m 0.11719,0.140625 c 0.234552,0.167137 0.531773,0.387611 0.603515,0.441407 l -0.134765,0.185547 c -0.01612,-0.0102 -0.0311,-0.01878 -0.05078,-0.0332 l -0.166015,-0.121093 -0.59375,0.810547 0.140625,0.103515 c 0.0173,0.01265 0.02884,0.02654 0.0332,0.03516 l -0.269531,0.369141 c -0.01261,-9.35e-4 -0.02425,-0.0039 -0.03711,-0.0039 -0.310269,2.8e-5 -0.564426,0.254175 -0.564453,0.564453 -4.5e-5,0.06792 0.02314,0.132043 0.04687,0.195312 l -0.691406,0.94336 c -0.0095,-0.0016 -0.02762,-0.0069 -0.04492,-0.01953 L 17.279297,81 c -0.01782,-0.01304 -0.02719,-0.02677 -0.03125,-0.03516 l 1.513672,-2.066406 c 0.0092,0.0013 0.02701,0.0045 0.04492,0.01758 l 0.140625,0.103515 0.59375,-0.810547 -0.164063,-0.121093 c -0.01945,-0.01425 -0.03237,-0.02493 -0.04687,-0.03711 z"
       id="rect11396"
       inkscape:connector-curvature="0"
       sodipodi:nodetypes="ccccccssccccccccccccccccccccccccccccccccccccccccccccccccccccccccccc" />
    <path
       style="color:#000000;font-style:normal;font-variant:normal;font-weight:normal;font-stretch:normal;font-size:medium;line-height:normal;font-family:sans-serif;font-variant-ligatures:normal;font-variant-position:normal;font-variant-caps:normal;font-variant-numeric:normal;font-variant-alternates:normal;font-feature-settings:normal;text-indent:0;text-align:start;text-decoration:none;text-decoration-line:none;text-decoration-style:solid;text-decoration-color:#000000;letter-spacing:normal;word-spacing:normal;text-transform:none;writing-mode:lr-tb;direction:ltr;text-orientation:mixed;dominant-baseline:auto;baseline-shift:baseline;text-anchor:start;white-space:normal;shape-padding:0;clip-rule:nonzero;display:inline;overflow:visible;visibility:visible;opacity:1;isolation:auto;mix-blend-mode:normal;color-interpolation:sRGB;color-interpolation-filters:linearRGB;solid-color:#000000;solid-opacity:1;vector-effect:none;fill:#00c49d;fill-opacity:1;fill-rule:nonzero;stroke:none;stroke-width:0.67309272;stroke-linecap:round;stroke-linejoin:miter;stroke-miterlimit:4;stroke-dasharray:none;stroke-dashoffset:0;stroke-opacity:1;color-rendering:auto;image-rendering:auto;shape-rendering:auto;text-rendering:auto;enable-background:accumulate"
       d="M 14.072266 10.378906 A 0.33658001 0.33658001 0 0 0 14.037109 10.380859 A 0.33658001 0.33658001 0 0 0 13.859375 10.978516 C 15.400296 12.233326 16.334259 14.087643 16.435547 16.072266 C 16.50608 17.454237 16.160741 18.805577 15.474609 19.976562 L 16.246094 19.976562 C 16.871982 18.774342 17.17795 17.417056 17.107422 16.035156 C 16.996455 13.860696 15.975428 11.835775 14.287109 10.460938 A 0.33658001 0.33658001 0 0 0 14.072266 10.378906 z "
       transform="matrix(0.26458333,0,0,0.26458333,15.72551,77.616779)"
       id="circle11408" />
    <path
       style="color:#000000;font-style:normal;font-variant:normal;font-weight:normal;font-stretch:normal;font-size:medium;line-height:normal;font-family:sans-serif;font-variant-ligatures:normal;font-variant-position:normal;font-variant-caps:normal;font-variant-numeric:normal;font-variant-alternates:normal;font-feature-settings:normal;text-indent:0;text-align:start;text-decoration:none;text-decoration-line:none;text-decoration-style:solid;text-decoration-color:#000000;letter-spacing:normal;word-spacing:normal;text-transform:none;writing-mode:lr-tb;direction:ltr;text-orientation:mixed;dominant-baseline:auto;baseline-shift:baseline;text-anchor:start;white-space:normal;shape-padding:0;clip-rule:nonzero;display:inline;overflow:visible;visibility:visible;opacity:1;isolation:auto;mix-blend-mode:normal;color-interpolation:sRGB;color-interpolation-filters:linearRGB;solid-color:#000000;solid-opacity:1;vector-effect:none;fill:#00c49d;fill-opacity:1;fill-rule:nonzero;stroke:none;stroke-width:0.67309272;stroke-linecap:round;stroke-linejoin:miter;stroke-miterlimit:4;stroke-dasharray:none;stroke-dashoffset:0;stroke-opacity:1;color-rendering:auto;image-rendering:auto;shape-rendering:auto;text-rendering:auto;enable-background:accumulate"
       d="M 12.507812 11.271484 A 0.33658001 0.33658001 0 0 0 12.324219 11.894531 C 13.696543 12.772973 14.599756 14.229704 14.775391 15.849609 C 14.938823 17.356967 14.452687 18.84782 13.457031 19.976562 L 14.318359 19.976562 C 15.191681 18.771256 15.602349 17.279748 15.439453 15.777344 C 15.241893 13.955264 14.229148 12.320109 12.685547 11.332031 A 0.33658001 0.33658001 0 0 0 12.539062 11.273438 A 0.33658001 0.33658001 0 0 0 12.507812 11.271484 z "
       transform="matrix(0.26458333,0,0,0.26458333,15.72551,77.616779)"
       id="circle11410" />
    <path
       style="color:#000000;font-style:normal;font-variant:normal;font-weight:normal;font-stretch:normal;font-size:medium;line-height:normal;font-family:sans-serif;font-variant-ligatures:normal;font-variant-position:normal;font-variant-caps:normal;font-variant-numeric:normal;font-variant-alternates:normal;font-feature-settings:normal;text-indent:0;text-align:start;text-decoration:none;text-decoration-line:none;text-decoration-style:solid;text-decoration-color:#000000;letter-spacing:normal;word-spacing:normal;text-transform:none;writing-mode:lr-tb;direction:ltr;text-orientation:mixed;dominant-baseline:auto;baseline-shift:baseline;text-anchor:start;white-space:normal;shape-padding:0;clip-rule:nonzero;display:inline;overflow:visible;visibility:visible;opacity:1;isolation:auto;mix-blend-mode:normal;color-interpolation:sRGB;color-interpolation-filters:linearRGB;solid-color:#000000;solid-opacity:1;vector-effect:none;fill:#00c49d;fill-opacity:1;fill-rule:nonzero;stroke:none;stroke-width:0.17808911;stroke-linecap:round;stroke-linejoin:miter;stroke-miterlimit:4;stroke-dasharray:none;stroke-dashoffset:0;stroke-opacity:1;color-rendering:auto;image-rendering:auto;shape-rendering:auto;text-rendering:auto;enable-background:accumulate"
       d="m 18.990234,79.652344 c -0.310308,0 -0.564453,0.254145 -0.564453,0.564453 0,0.310308 0.254145,0.5625 0.564453,0.5625 0.310309,0 0.5625,-0.252192 0.5625,-0.5625 0,-0.310308 -0.252191,-0.564453 -0.5625,-0.564453 z m 0,0.177734 c 0.214062,0 0.384766,0.172657 0.384766,0.386719 0,0.214062 -0.170704,0.384766 -0.384766,0.384765 -0.214061,0 -0.386718,-0.170703 -0.386718,-0.384765 0,-0.214062 0.172657,-0.386719 0.386718,-0.386719 z"
       id="path11406"
       inkscape:connector-curvature="0" />
    <path
       style="color:#000000;font-style:normal;font-variant:normal;font-weight:normal;font-stretch:normal;font-size:medium;line-height:normal;font-family:sans-serif;font-variant-ligatures:normal;font-variant-position:normal;font-variant-caps:normal;font-variant-numeric:normal;font-variant-alternates:normal;font-feature-settings:normal;text-indent:0;text-align:start;text-decoration:none;text-decoration-line:none;text-decoration-style:solid;text-decoration-color:#000000;letter-spacing:normal;word-spacing:normal;text-transform:none;writing-mode:lr-tb;direction:ltr;text-orientation:mixed;dominant-baseline:auto;baseline-shift:baseline;text-anchor:start;white-space:normal;shape-padding:0;clip-rule:nonzero;display:inline;overflow:visible;visibility:visible;opacity:1;isolation:auto;mix-blend-mode:normal;color-interpolation:sRGB;color-interpolation-filters:linearRGB;solid-color:#000000;solid-opacity:1;vector-effect:none;fill:#00c49d;fill-opacity:1;fill-rule:nonzero;stroke:none;stroke-width:0.17808908;stroke-linecap:round;stroke-linejoin:miter;stroke-miterlimit:4;stroke-dasharray:none;stroke-dashoffset:0;stroke-opacity:1;color-rendering:auto;image-rendering:auto;shape-rendering:auto;text-rendering:auto;enable-background:accumulate"
       d="m 16.109375,82.865234 c -0.210962,0 -0.384766,0.173804 -0.384766,0.384766 0,0.210962 0.173804,0.382812 0.384766,0.382812 h 3.958984 c 0.210962,0 0.382813,-0.17185 0.382813,-0.382812 0,-0.210962 -0.171851,-0.384766 -0.382813,-0.384766 z m 0,0.179688 h 3.958984 c 0.115381,0 0.205078,0.0897 0.205079,0.205078 0,0.115381 -0.0897,0.205078 -0.205079,0.205078 h -3.958984 c -0.115381,0 -0.205078,-0.0897 -0.205078,-0.205078 0,-0.115381 0.0897,-0.205078 0.205078,-0.205078 z"
       id="rect11414"
       inkscape:connector-curvature="0" />
    <rect
       style="opacity:1;fill:#00c49d;fill-opacity:1;stroke:none;stroke-width:0.1780891;stroke-linecap:round;stroke-linejoin:miter;stroke-miterlimit:4;stroke-dasharray:none;stroke-opacity:1"
       id="rect11420"
       width="1.8666103"
       height="0.36145341"
       x="16.140343"
       y="82.161545"
       rx="0.18072671"
       ry="0.18072671" />
    <g
       id="g11428"
       transform="matrix(0.46137073,0,0,0.46137073,109.17974,-89.442179)">
      <rect
         transform="rotate(90)"
         style="opacity:1;fill:#00c49d;fill-opacity:1;stroke:none;stroke-width:0.38599998;stroke-linecap:round;stroke-linejoin:miter;stroke-miterlimit:4;stroke-dasharray:none;stroke-opacity:1"
         id="rect11422"
         width="1.337339"
         height="0.55192339"
         x="372.44171"
         y="200.09059"
         rx="0.37408665"
         ry="0.2759617" />
      <rect
         ry="0.2759617"
         rx="0.37408665"
         y="198.62897"
         x="372.44171"
         height="0.55192339"
         width="1.337339"
         id="rect11424"
         style="opacity:1;fill:#00c49d;fill-opacity:1;stroke:none;stroke-width:0.38599998;stroke-linecap:round;stroke-linejoin:miter;stroke-miterlimit:4;stroke-dasharray:none;stroke-opacity:1"
         transform="rotate(90)" />
    </g>
  </g>
</svg>
