<?xml version="1.0" encoding="UTF-8" standalone="no"?>
<!-- Created with Inkscape (http://www.inkscape.org/) -->

<svg
   xmlns:dc="http://purl.org/dc/elements/1.1/"
   xmlns:cc="http://creativecommons.org/ns#"
   xmlns:rdf="http://www.w3.org/1999/02/22-rdf-syntax-ns#"
   xmlns:svg="http://www.w3.org/2000/svg"
   xmlns="http://www.w3.org/2000/svg"
   xmlns:sodipodi="http://sodipodi.sourceforge.net/DTD/sodipodi-0.dtd"
   xmlns:inkscape="http://www.inkscape.org/namespaces/inkscape"
   width="7.0059848mm"
   height="7.0181451mm"
   viewBox="0 0 7.0059849 7.0181451"
   version="1.1"
   id="svg6098"
   inkscape:version="0.92.5 (2060ec1f9f, 2020-04-08)"
   sodipodi:docname="physics2.svg">
  <defs
     id="defs6092" />
  <sodipodi:namedview
     id="base"
     pagecolor="#ffffff"
     bordercolor="#666666"
     borderopacity="1.0"
     inkscape:pageopacity="0.0"
     inkscape:pageshadow="2"
     inkscape:zoom="22.4"
     inkscape:cx="14.441228"
     inkscape:cy="6.6587038"
     inkscape:document-units="mm"
     inkscape:current-layer="layer1"
     showgrid="false"
     inkscape:window-width="1920"
     inkscape:window-height="1052"
     inkscape:window-x="1920"
     inkscape:window-y="0"
     inkscape:window-maximized="1" />
  <metadata
     id="metadata6095">
    <rdf:RDF>
      <cc:Work
         rdf:about="">
        <dc:format>image/svg+xml</dc:format>
        <dc:type
           rdf:resource="http://purl.org/dc/dcmitype/StillImage" />
        <dc:title></dc:title>
      </cc:Work>
    </rdf:RDF>
  </metadata>
  <g
     inkscape:label="Layer 1"
     inkscape:groupmode="layer"
     id="layer1"
     transform="translate(-34.094011,-120.24213)">
    <g
       id="g6696"
       transform="rotate(45,32.863483,124.71399)">
      <path
         id="path5984"
         d="m 33.499174,119.73525 c -0.06151,-1.4e-4 -0.111387,0.0497 -0.111229,0.11123 l -1e-6,2.5946 c 0,0.006 1.41e-4,0.0112 0.0015,0.0172 -4.25e-4,0.003 -0.0011,0.007 -7.07e-4,0.0106 0,0.76633 0.408759,1.47462 1.072423,1.85778 0.663663,0.38317 1.482195,0.38317 2.145859,0 0.663662,-0.38317 1.072461,-1.09141 1.072425,-1.85778 2.82e-4,-0.002 -4.25e-4,-0.004 -9.9e-4,-0.006 0.0015,-0.007 0.0019,-0.0147 0.0022,-0.0217 l 1e-6,-2.5946 c 9.2e-5,-0.0613 -0.04943,-0.1111 -0.110727,-0.11124 l -0.911112,1e-5 c -0.06151,-1.5e-4 -0.111388,0.0497 -0.11123,0.11123 l -4e-6,2.53051 c -0.0017,0.0725 -0.0075,0.12943 -0.01363,0.21482 -0.0418,0.29883 -0.20066,0.57368 -0.481107,0.72866 -0.320741,0.17724 -0.717401,0.17724 -1.038146,0 -0.280446,-0.15497 -0.439305,-0.42983 -0.481107,-0.72866 -0.008,-0.0691 -0.01205,-0.10392 -0.01376,-0.13532 7.78e-4,-0.005 0.0015,-0.01 0.0013,-0.0154 l 10e-7,-2.5946 c 1.21e-4,-0.0614 -0.04951,-0.11117 -0.110854,-0.11124 z m 0.110846,0.22195 h 0.689044 l -5e-6,0.56634 -0.689036,1e-5 z m 3.159548,0 h 0.689164 l 3e-6,0.56635 -0.689171,-1e-5 z m -3.159545,0.746 0.689036,-10e-6 -10e-7,1.62666 c -2.1e-5,0.11966 0.0074,0.0927 0.0074,0.26196 0.04123,0.39318 0.230127,0.74619 0.588766,0.94437 0.395776,0.2187 0.881396,0.21871 1.277173,1e-5 0.358637,-0.19818 0.556909,-0.55126 0.598191,-0.94438 1e-6,-0.17095 -10e-4,-0.12937 -9.86e-4,-0.26196 l 10e-7,-1.62666 h 0.689164 l 5e-6,1.62667 c -4e-6,0.15937 -0.0037,0.15096 -0.0037,0.26195 -0.04171,0.62951 -0.420597,1.20308 -0.97176,1.52129 -0.587726,0.33932 -1.311476,0.33932 -1.899199,0 -0.551161,-0.31821 -0.925596,-0.89178 -0.967304,-1.52129 -2.8e-5,-0.10816 -0.0069,-0.17117 -0.0069,-0.26196 z"
         style="color:#000000;font-style:normal;font-variant:normal;font-weight:normal;font-stretch:normal;font-size:medium;line-height:normal;font-family:sans-serif;font-variant-ligatures:normal;font-variant-position:normal;font-variant-caps:normal;font-variant-numeric:normal;font-variant-alternates:normal;font-feature-settings:normal;text-indent:0;text-align:start;text-decoration:none;text-decoration-line:none;text-decoration-style:solid;text-decoration-color:#000000;letter-spacing:normal;word-spacing:normal;text-transform:none;writing-mode:lr-tb;direction:ltr;text-orientation:mixed;dominant-baseline:auto;baseline-shift:baseline;text-anchor:start;white-space:normal;shape-padding:0;clip-rule:nonzero;display:inline;overflow:visible;visibility:visible;opacity:1;isolation:auto;mix-blend-mode:normal;color-interpolation:sRGB;color-interpolation-filters:linearRGB;solid-color:#000000;solid-opacity:1;vector-effect:none;fill:#00c49d;fill-opacity:1;fill-rule:nonzero;stroke:#00c49d;stroke-width:0.2;stroke-linecap:round;stroke-linejoin:round;stroke-miterlimit:4;stroke-dasharray:none;stroke-dashoffset:0;stroke-opacity:1;color-rendering:auto;image-rendering:auto;shape-rendering:auto;text-rendering:auto;enable-background:accumulate"
         inkscape:connector-curvature="0" />
      <rect
         inkscape:transform-center-x="2.5249967"
         inkscape:transform-center-y="-2.6076877"
         ry="0.077466063"
         rx="0.077466063"
         y="118.02126"
         x="33.873573"
         height="0.92959279"
         width="0.15493213"
         id="rect6047"
         style="opacity:1;fill:#00c49d;fill-opacity:1;stroke:#00c49d;stroke-width:0.2;stroke-linecap:round;stroke-linejoin:round;stroke-miterlimit:4;stroke-dasharray:none;stroke-opacity:1" />
      <rect
         transform="rotate(45)"
         style="opacity:1;fill:#00c49d;fill-opacity:1;stroke:#00c49d;stroke-width:0.2;stroke-linecap:round;stroke-linejoin:round;stroke-miterlimit:4;stroke-dasharray:none;stroke-opacity:1"
         id="rect6057"
         width="0.15493213"
         height="0.92959285"
         x="108.34881"
         y="59.058598"
         rx="0.077466063"
         ry="0.077466063"
         inkscape:transform-center-y="-3.6293525"
         inkscape:transform-center-x="-0.058472453" />
      <rect
         transform="rotate(-45)"
         inkscape:transform-center-x="3.6293437"
         inkscape:transform-center-y="-0.058463061"
         ry="0.077466063"
         rx="0.077466063"
         y="107.05224"
         x="-60.481281"
         height="0.92959285"
         width="0.15493213"
         id="rect6059"
         style="opacity:1;fill:#00c49d;fill-opacity:1;stroke:#00c49d;stroke-width:0.2;stroke-linecap:round;stroke-linejoin:round;stroke-miterlimit:4;stroke-dasharray:none;stroke-opacity:1" />
      <rect
         style="opacity:1;fill:#00c49d;fill-opacity:1;stroke:#00c49d;stroke-width:0.2;stroke-linecap:round;stroke-linejoin:round;stroke-miterlimit:4;stroke-dasharray:none;stroke-opacity:1"
         id="rect6061"
         width="0.15493213"
         height="0.92959279"
         x="37.051285"
         y="118.02126"
         rx="0.077466063"
         ry="0.077466063"
         inkscape:transform-center-y="-2.6076838"
         inkscape:transform-center-x="2.5249967" />
      <rect
         inkscape:transform-center-x="-0.058472453"
         inkscape:transform-center-y="-3.6293525"
         ry="0.077466063"
         rx="0.077466063"
         y="56.811604"
         x="110.59579"
         height="0.92959285"
         width="0.15493213"
         id="rect6063"
         style="opacity:1;fill:#00c49d;fill-opacity:1;stroke:#00c49d;stroke-width:0.2;stroke-linecap:round;stroke-linejoin:round;stroke-miterlimit:4;stroke-dasharray:none;stroke-opacity:1"
         transform="rotate(45)" />
      <rect
         transform="rotate(-45)"
         style="opacity:1;fill:#00c49d;fill-opacity:1;stroke:#00c49d;stroke-width:0.2;stroke-linecap:round;stroke-linejoin:round;stroke-miterlimit:4;stroke-dasharray:none;stroke-opacity:1"
         id="rect6065"
         width="0.15493213"
         height="0.92959285"
         x="-58.234291"
         y="109.2992"
         rx="0.077466063"
         ry="0.077466063"
         inkscape:transform-center-y="-0.058473851"
         inkscape:transform-center-x="3.6293545" />
    </g>
    <path
       style="opacity:1;fill:#00c49d;fill-opacity:1;stroke:#00c49d;stroke-width:0.75590551;stroke-linecap:round;stroke-linejoin:round;stroke-miterlimit:4;stroke-dasharray:none;stroke-opacity:1"
       d="M 7.5081922,24.750628 C 6.0064112,24.504023 4.7538221,23.868948 3.7135493,22.826706 3.132382,22.244438 2.7910506,21.778711 2.4440129,21.094495 1.3232583,18.884828 1.4781481,16.191037 2.8433075,14.150102 3.1855115,13.638501 3.9571444,12.818772 6.2432337,10.538257 L 8.0446886,8.7411954 8.6901355,9.3877962 9.3355828,10.034397 6.9231632,12.457179 c -1.9637385,1.972174 -2.4586587,2.493359 -2.6610312,2.802247 -0.667984,1.019568 -0.9202567,1.88382 -0.8702476,2.981348 0.032565,0.714693 0.1679903,1.233398 0.4993952,1.912782 0.6919014,1.418407 1.9470558,2.446942 3.4913242,2.860963 0.3867697,0.103693 0.5217616,0.117452 1.1523741,0.117452 0.6287853,0 0.7661514,-0.01391 1.1475808,-0.116236 0.2383125,-0.06393 0.6099603,-0.199025 0.8258853,-0.30021 0.876007,-0.410511 0.883915,-0.417354 3.529318,-3.053863 l 2.46707,-2.458776 0.635609,0.636245 0.635608,0.636243 -2.455357,2.445973 c -1.993473,1.985854 -2.530938,2.496891 -2.857143,2.716657 -0.739109,0.497941 -1.482935,0.81906 -2.366071,1.021463 -0.4641554,0.106377 -0.6490161,0.124583 -1.3839286,0.136292 -0.5524755,0.0088 -0.9727362,-0.0069 -1.2053572,-0.04513 z"
       id="path7506"
       inkscape:connector-curvature="0"
       transform="matrix(0.26458333,0,0,0.26458333,34.094011,120.24213)" />
  </g>
</svg>
