<?xml version="1.0" encoding="UTF-8" standalone="no"?>
<!-- Created with Inkscape (http://www.inkscape.org/) -->

<svg
   xmlns:dc="http://purl.org/dc/elements/1.1/"
   xmlns:cc="http://creativecommons.org/ns#"
   xmlns:rdf="http://www.w3.org/1999/02/22-rdf-syntax-ns#"
   xmlns:svg="http://www.w3.org/2000/svg"
   xmlns="http://www.w3.org/2000/svg"
   xmlns:sodipodi="http://sodipodi.sourceforge.net/DTD/sodipodi-0.dtd"
   xmlns:inkscape="http://www.inkscape.org/namespaces/inkscape"
   width="6.5226002mm"
   height="2.1757457mm"
   viewBox="0 0 6.5226 2.1757458"
   version="1.1"
   id="svg8"
   inkscape:version="0.92.5 (2060ec1f9f, 2020-04-08)"
   sodipodi:docname="sat.svg">
  <defs
     id="defs2" />
  <sodipodi:namedview
     id="base"
     pagecolor="#ffffff"
     bordercolor="#666666"
     borderopacity="1.0"
     inkscape:pageopacity="0.0"
     inkscape:pageshadow="2"
     inkscape:zoom="11.2"
     inkscape:cx="19.565828"
     inkscape:cy="16.648417"
     inkscape:document-units="mm"
     inkscape:current-layer="layer1"
     showgrid="false"
     inkscape:window-width="1920"
     inkscape:window-height="1052"
     inkscape:window-x="1920"
     inkscape:window-y="0"
     inkscape:window-maximized="1"
     showguides="false">
    <sodipodi:guide
       position="11.305065,46.797567"
       orientation="0,1"
       id="guide821"
       inkscape:locked="false" />
  </sodipodi:namedview>
  <metadata
     id="metadata5">
    <rdf:RDF>
      <cc:Work
         rdf:about="">
        <dc:format>image/svg+xml</dc:format>
        <dc:type
           rdf:resource="http://purl.org/dc/dcmitype/StillImage" />
        <dc:title />
      </cc:Work>
    </rdf:RDF>
  </metadata>
  <g
     inkscape:label="Layer 1"
     inkscape:groupmode="layer"
     id="layer1"
     transform="translate(113.92296,-236.12666)">
    <path
       style="fill:#00c49d;fill-opacity:1;stroke-width:1"
       d="m -113.15585,238.29247 c -0.10939,-0.0188 -0.32926,-0.11534 -0.32926,-0.14453 0,-0.0105 -0.0162,-0.0191 -0.0361,-0.0191 -0.0253,0 -0.0319,0.0134 -0.0219,0.0448 0.019,0.0599 -0.0474,0.0936 -0.18394,0.0936 -0.19672,0 -0.19591,0.002 -0.19591,-0.40326 v -0.35555 l 0.0971,-0.0262 c 0.0618,-0.0167 0.13096,-0.019 0.19014,-0.006 0.0879,0.0186 0.0937,0.0249 0.10612,0.11793 0.0281,0.21065 0.19867,0.32788 0.47692,0.32788 0.24414,0 0.35122,-0.0667 0.35122,-0.21896 0,-0.14589 -0.0863,-0.20335 -0.48218,-0.32127 -0.34981,-0.10419 -0.48241,-0.1693 -0.57628,-0.28295 -0.092,-0.11143 -0.12507,-0.23488 -0.11083,-0.41423 0.0258,-0.32468 0.27298,-0.53609 0.64975,-0.55573 0.21471,-0.0112 0.35135,0.0192 0.44691,0.0997 0.0841,0.0707 0.0957,0.071 0.0957,0.002 0,-0.0608 0.049,-0.0827 0.18439,-0.0827 0.19109,0 0.18438,-0.0134 0.18438,0.36946 0,0.20955 -0.009,0.34735 -0.0237,0.35636 -0.0339,0.0208 -0.25464,0.0223 -0.31622,0.002 -0.0384,-0.0126 -0.0519,-0.035 -0.0519,-0.0859 0,-0.17781 -0.15608,-0.29576 -0.39182,-0.29607 -0.14436,-1.7e-4 -0.21798,0.0304 -0.28255,0.1174 -0.0558,0.0751 -0.0374,0.18998 0.0381,0.23949 0.0281,0.0184 0.19538,0.0756 0.37172,0.12724 0.36621,0.10708 0.51465,0.17968 0.62065,0.30352 0.12368,0.14448 0.16388,0.38747 0.0998,0.60324 -0.0392,0.1321 -0.20753,0.29528 -0.36501,0.35391 -0.14294,0.0532 -0.40193,0.0791 -0.54521,0.0545 z m 1.16143,-0.0427 c -0.0266,-0.0451 -0.0399,-0.17147 -0.026,-0.24584 0.0141,-0.0754 0.0223,-0.0826 0.0934,-0.0826 0.0494,0 0.0872,-0.0148 0.10326,-0.0406 0.0139,-0.0223 0.15201,-0.41905 0.30681,-0.8816 l 0.28147,-0.841 h 0.29729 0.29731 l 0.0977,0.29962 c 0.0537,0.1648 0.17765,0.54855 0.27538,0.85279 0.0977,0.30423 0.18726,0.56553 0.19897,0.58063 0.0117,0.0151 0.0543,0.0307 0.0945,0.0346 0.0702,0.007 0.0735,0.0117 0.0804,0.12081 0.004,0.0625 7e-4,0.13797 -0.006,0.16762 l -0.0135,0.054 -0.41904,-0.006 -0.41906,-0.006 -0.0167,-0.0806 c -0.009,-0.0444 -0.009,-0.11643 -3.1e-4,-0.16013 0.0147,-0.0719 0.0241,-0.0796 0.0963,-0.0807 0.0746,-7e-4 0.0795,-0.006 0.0726,-0.0691 -0.004,-0.0374 -0.0212,-0.101 -0.0381,-0.14147 l -0.0307,-0.0736 -0.30016,-6.9e-4 -0.30017,-7e-4 -0.0464,0.13713 c -0.0255,0.0754 -0.0392,0.13853 -0.0305,0.14024 0.008,0.002 0.0468,0.004 0.0849,0.006 0.0595,0.002 0.072,0.0143 0.0896,0.0857 0.0113,0.0457 0.0135,0.12083 0.005,0.1671 l -0.0157,0.0841 h -0.40094 c -0.22052,0 -0.40552,-0.008 -0.41111,-0.0173 z m 1.2466,-0.94498 c -0.0889,-0.33118 -0.18866,-0.68776 -0.19451,-0.6953 -0.004,-0.005 -0.0128,-0.004 -0.0191,0.002 -0.0112,0.0112 -0.21877,0.69563 -0.21877,0.72125 0,0.007 0.0998,0.0123 0.22166,0.0123 0.19985,0 0.22058,-0.004 0.21081,-0.0403 z m 1.33506,0.94739 c -0.0298,-0.0298 -0.0181,-0.33069 0.013,-0.33297 0.0159,-7e-4 0.0599,-0.004 0.0979,-0.006 l 0.0692,-0.004 v -0.69144 -0.69145 h -0.14981 -0.14982 l -0.0116,0.17286 -0.0114,0.17286 -0.0958,0.0201 c -0.0556,0.0116 -0.13284,0.0114 -0.18438,-7e-4 l -0.0886,-0.021 -0.006,-0.35064 -0.006,-0.35065 h 0.9577 0.95771 l -0.006,0.3514 -0.006,0.35141 -0.0997,0.021 c -0.0599,0.0126 -0.13356,0.0126 -0.18438,7e-5 l -0.0847,-0.0208 -0.0116,-0.17286 -0.0116,-0.17286 h -0.14981 -0.14982 v 0.69144 0.69145 l 0.0952,0.007 c 0.0904,0.006 0.0959,0.0113 0.10829,0.0922 0.007,0.0469 0.005,0.12154 -0.004,0.16591 l -0.0169,0.0806 -0.42689,0.006 c -0.23479,0.003 -0.43404,-7e-4 -0.44276,-0.009 z m 1.6541,-1.77031 c -0.1282,-0.12821 -0.0261,-0.33526 0.16524,-0.33526 0.0714,0 0.19306,0.11574 0.19306,0.18377 0,0.0669 -0.0591,0.17625 -0.10476,0.19374 -0.0852,0.0326 -0.19727,0.014 -0.25354,-0.0422 z m 0.20344,0.0193 c 0.0179,-0.0179 -0.0503,-0.12413 -0.0798,-0.12413 -0.0121,0 -0.0153,0.0208 -0.007,0.046 0.008,0.0265 0.004,0.0461 -0.0102,0.0461 -0.0135,0 -0.0246,0.0103 -0.0246,0.023 0,0.0249 0.0984,0.0322 0.12172,0.009 z m -0.12635,-0.18379 c -0.009,-0.075 -0.006,-0.0786 0.0644,-0.0786 0.082,0 0.11966,0.0541 0.0751,0.1078 -0.0213,0.0257 -0.019,0.0411 0.0106,0.0706 0.047,0.047 0.0696,0.0265 0.0696,-0.0628 0,-0.14336 -0.15283,-0.21157 -0.25688,-0.11463 -0.0551,0.0514 -0.067,0.15766 -0.0227,0.20207 0.04,0.04 0.0713,-0.0251 0.0598,-0.12433 z m 0.10735,-0.008 c 0.0169,-0.0275 -0.0263,-0.0549 -0.057,-0.0359 -0.0258,0.016 -0.009,0.0574 0.0234,0.0574 0.0112,0 0.0263,-0.009 0.0336,-0.0215 z"
       id="path841"
       inkscape:connector-curvature="0"
       sodipodi:nodetypes="csscssccccsscccccsssccscccccscccccscccccccccccccccccccccccsccccscccccsscccccccccccccccccccccsccccccccccccccccsscccscsscccsccscccccsc" />
  </g>
</svg>
