<?xml version="1.0" encoding="UTF-8" standalone="no"?>
<!-- Created with Inkscape (http://www.inkscape.org/) -->

<svg
   xmlns:dc="http://purl.org/dc/elements/1.1/"
   xmlns:cc="http://creativecommons.org/ns#"
   xmlns:rdf="http://www.w3.org/1999/02/22-rdf-syntax-ns#"
   xmlns:svg="http://www.w3.org/2000/svg"
   xmlns="http://www.w3.org/2000/svg"
   xmlns:sodipodi="http://sodipodi.sourceforge.net/DTD/sodipodi-0.dtd"
   xmlns:inkscape="http://www.inkscape.org/namespaces/inkscape"
   width="23.275093"
   height="23.275253"
   viewBox="0 0 6.1582018 6.1582443"
   version="1.1"
   id="svg10100"
   inkscape:version="0.92.5 (2060ec1f9f, 2020-04-08)"
   sodipodi:docname="us-flag.svg">
  <defs
     id="defs10094" />
  <sodipodi:namedview
     id="base"
     pagecolor="#ffffff"
     bordercolor="#666666"
     borderopacity="1.0"
     inkscape:pageopacity="0.0"
     inkscape:pageshadow="2"
     inkscape:zoom="3.959798"
     inkscape:cx="89.816048"
     inkscape:cy="-15.938405"
     inkscape:document-units="mm"
     inkscape:current-layer="layer1"
     showgrid="false"
     inkscape:window-width="1920"
     inkscape:window-height="1052"
     inkscape:window-x="1920"
     inkscape:window-y="0"
     inkscape:window-maximized="1"
     units="px"
     inkscape:snap-bbox="true"
     inkscape:bbox-paths="true"
     inkscape:bbox-nodes="true"
     inkscape:snap-bbox-edge-midpoints="true"
     inkscape:snap-bbox-midpoints="true"
     inkscape:object-paths="true"
     inkscape:snap-intersection-paths="true"
     inkscape:snap-smooth-nodes="true"
     inkscape:snap-midpoints="true"
     inkscape:snap-object-midpoints="true"
     inkscape:snap-center="true" />
  <metadata
     id="metadata10097">
    <rdf:RDF>
      <cc:Work
         rdf:about="">
        <dc:format>image/svg+xml</dc:format>
        <dc:type
           rdf:resource="http://purl.org/dc/dcmitype/StillImage" />
        <dc:title />
      </cc:Work>
    </rdf:RDF>
  </metadata>
  <g
     inkscape:label="Layer 1"
     inkscape:groupmode="layer"
     id="layer1"
     transform="translate(-71.724927,-139.6673)">
    <path
       inkscape:connector-curvature="0"
       style="opacity:1;fill:#00c49d;fill-opacity:1;stroke:none;stroke-width:0.20093164;stroke-linecap:round;stroke-linejoin:miter;stroke-miterlimit:4;stroke-dasharray:none;stroke-opacity:1"
       d="m 74.80403,139.66734 a 3.0790643,3.0790643 0 0 0 -3.079103,3.0791 3.0790643,3.0790643 0 0 0 0.06563,0.61573 h 3.629216 v -3.63233 a 3.0790643,3.0790643 0 0 0 -0.615738,-0.0625 z m -1.237706,0.81759 0.341616,0.67886 0.752798,0.10343 -0.539937,0.53475 0.134153,0.74781 -0.675338,-0.34826 -0.669732,0.35885 0.122526,-0.7501 -0.548246,-0.52603 0.751137,-0.11525 z"
       id="rect10020" />
    <path
       style="opacity:1;fill:#00c49d;fill-opacity:1;stroke:none;stroke-width:0.59543782;stroke-linecap:round;stroke-linejoin:miter;stroke-miterlimit:4;stroke-dasharray:none;stroke-opacity:1"
       d="M 15.814453 9.3105469 L 15.814453 13.964844 L 23.039062 13.964844 A 11.637408 11.637408 0 0 0 23.275391 11.636719 A 11.637408 11.637408 0 0 0 23.027344 9.3105469 L 15.814453 9.3105469 z "
       transform="matrix(0.26458333,0,0,0.26458333,71.724927,139.6673)"
       id="rect10024" />
    <path
       style="opacity:1;fill:#00c49d;fill-opacity:1;stroke:none;stroke-width:0.59543782;stroke-linecap:round;stroke-linejoin:miter;stroke-miterlimit:4;stroke-dasharray:none;stroke-opacity:1"
       d="M 15.814453 0.79492188 L 15.814453 4.65625 L 20.933594 4.65625 A 11.637408 11.637408 0 0 0 15.814453 0.79492188 z "
       transform="matrix(0.26458333,0,0,0.26458333,71.724927,139.6673)"
       id="rect10028" />
    <path
       inkscape:connector-curvature="0"
       style="opacity:1;fill:#00c49d;fill-opacity:1;stroke:none;stroke-width:0.19564679;stroke-linecap:round;stroke-linejoin:miter;stroke-miterlimit:4;stroke-dasharray:none;stroke-opacity:1"
       d="m 72.344611,144.59386 a 3.0790643,3.0790643 0 0 0 2.459419,1.23168 3.0790643,3.0790643 0 0 0 2.458588,-1.23168 z"
       id="rect10052" />
  </g>
</svg>
